<?xml version="1.0" encoding="UTF-8" standalone="no"?>
<!-- Created with Inkscape (http://www.inkscape.org/) -->

<svg
   xmlns:dc="http://purl.org/dc/elements/1.1/"
   xmlns:cc="http://creativecommons.org/ns#"
   xmlns:rdf="http://www.w3.org/1999/02/22-rdf-syntax-ns#"
   xmlns:svg="http://www.w3.org/2000/svg"
   xmlns="http://www.w3.org/2000/svg"
   xmlns:sodipodi="http://sodipodi.sourceforge.net/DTD/sodipodi-0.dtd"
   xmlns:inkscape="http://www.inkscape.org/namespaces/inkscape"
   width="210mm"
   height="297mm"
   viewBox="0 0 744.09448819 1052.3622047"
   id="svg2"
   version="1.1"
   inkscape:version="0.91 r13725">
  <sodipodi:namedview
     id="base"
     pagecolor="#ffffff"
     bordercolor="#666666"
     borderopacity="1.0"
     inkscape:pageopacity="0.0"
     inkscape:pageshadow="2"
     inkscape:zoom="0.1767767"
     inkscape:cx="1241.6682"
     inkscape:cy="513.50937"
     inkscape:document-units="px"
     inkscape:current-layer="layer1"
     showgrid="false"
     inkscape:window-width="1747"
     inkscape:window-height="1056"
     inkscape:window-x="1541"
     inkscape:window-y="617"
     inkscape:window-maximized="0" />
  <defs
     id="defs4">
    <clipPath
       id="clipPath">
      <rect
         style="fill:#0000ff;fill-opacity:1"
         id="rect4181"
         width="497.80316"
         height="193.74725"
         x="119.50105"
         y="191.10612" />
    </clipPath>
  </defs>
  <metadata
     id="metadata7">
    <rdf:RDF>
      <cc:Work
         rdf:about="">
        <dc:format>image/svg+xml</dc:format>
        <dc:type
           rdf:resource="http://purl.org/dc/dcmitype/StillImage" />
        <dc:title></dc:title>
      </cc:Work>
    </rdf:RDF>
  </metadata>
  <g
     id="layer1"
     inkscape:groupmode="layer"
     inkscape:label="Layer 1">
    <path
       id="path4211"
       title="exp(-x*x)"
       d="m 133.5,384.06284 c 1.77441,0 3.54882,0 5.32323,0 1.77441,0 3.54882,0 5.32323,0 1.77442,0 3.54883,0 5.32324,0 1.77441,0 3.54882,0 5.32323,0 1.77441,0 3.54882,0 5.32323,0 1.77441,0 3.54882,0 5.32323,0 1.77441,0 3.54883,0 5.32324,0 1.77441,0 3.54882,0 5.32323,0 1.77441,0 3.54882,0 5.32323,0 1.77441,0 3.54882,0 5.32323,0 1.77441,0 3.54882,0 5.32324,0 1.77441,0 3.54882,0 5.32323,0 1.77441,0 3.54882,0 5.32323,0 1.77441,0 3.54882,0 5.32323,0 1.77441,0 3.54882,0 5.32323,0 1.77442,0 3.54883,0 5.32324,0 1.77441,0 3.54882,0 5.32323,0 1.77441,0 3.54882,0 5.32323,0 1.77441,0 3.54882,0 5.32323,0 1.77441,0 3.54883,0 5.32324,0 1.77441,0 3.54882,0 5.32323,0 1.77441,0 3.54882,0 5.32323,0 1.77441,0 3.54882,0 5.32323,0 1.77441,0 3.54882,0 5.32324,0 1.77441,0 3.54882,0 5.32323,0 1.77441,0 3.54882,0 5.32323,0 1.77441,0 3.54882,0 5.32323,0 1.77441,0 3.54882,0 5.32323,-10e-6 1.77442,0 3.54883,0 5.32324,0 1.77441,0 3.54882,-1e-5 5.32323,-1e-5 1.77441,-10e-6 3.54882,-3e-5 5.32323,-7e-5 1.77441,-3e-5 3.54882,-9e-5 5.32323,-2.6e-4 1.77441,-1.6e-4 3.54883,-4.1e-4 5.32324,-0.001 1.77441,-6e-4 3.54882,-0.002 5.32323,-0.004 1.77441,-0.002 3.54882,-0.005 5.32323,-0.0122 1.77441,-0.007 3.54882,-0.017 5.32323,-0.0368 1.77441,-0.0199 3.54882,-0.0491 5.32324,-0.10219 1.77441,-0.0531 3.54882,-0.12973 5.32323,-0.25989 1.77441,-0.13015 3.54882,-0.31354 5.32323,-0.60523 1.77441,-0.29168 3.54882,-0.692 5.32323,-1.28897 1.77441,-0.59697 3.54882,-1.39246 5.32323,-2.50602 1.77442,-1.11355 3.54883,-2.54939 5.32324,-4.43725 1.77441,-1.88784 3.54882,-4.23444 5.32323,-7.13169 1.77441,-2.89723 3.54882,-6.35305 5.32323,-10.3539 1.77441,-4.00084 3.54882,-8.5528 5.32323,-13.47629 1.77441,-4.92349 3.54883,-10.21908 5.32324,-15.52739 1.77441,-5.3083 3.54882,-10.62222 5.32323,-15.46637 1.77441,-4.84414 3.54882,-9.205 5.32323,-12.62749 1.77441,-3.42249 3.54882,-5.89143 5.32323,-7.13016 1.77441,-1.23873 3.54882,-1.23631 5.32324,0 1.77441,1.23631 3.54882,3.70953 5.32323,7.13016 1.77441,3.42063 3.54882,7.78429 5.32323,12.62749 1.77441,4.8432 3.54882,10.15807 5.32323,15.46637 1.77441,5.30831 3.54882,10.60319 5.32323,15.52739 1.77442,4.9242 3.54883,9.47438 5.32324,13.47629 1.77441,4.00192 3.54882,7.45558 5.32323,10.3539 1.77441,2.89834 3.54882,5.24294 5.32323,7.13169 1.77441,1.88876 3.54882,3.32306 5.32323,4.43725 1.77441,1.1142 3.54883,1.90864 5.32324,2.50602 1.77441,0.59737 3.54882,0.99707 5.32323,1.28897 1.77441,0.29191 3.54882,0.47497 5.32323,0.60523 1.77441,0.13027 3.54882,0.20672 5.32323,0.25989 1.77441,0.0532 3.54882,0.0823 5.32324,0.10219 1.77441,0.0199 3.54882,0.03 5.32323,0.0368 1.77441,0.007 3.54882,0.0101 5.32323,0.0122 1.77441,0.002 3.54882,0.003 5.32323,0.004 1.77441,6e-4 3.54882,6e-4 5.32323,0.001 1.77442,1.7e-4 3.54883,2.3e-4 5.32324,2.6e-4 1.77441,4e-5 3.54882,6e-5 5.32323,7e-5 1.77441,0 3.54882,1e-5 5.32323,1e-5 1.77441,0 3.54882,0 5.32323,0 1.77441,10e-6 3.54883,10e-6 5.32324,10e-6 1.77441,0 3.54882,0 5.32323,0 1.77441,0 3.54882,0 5.32323,0 1.77441,0 3.54882,0 5.32323,0 1.77441,0 3.54882,0 5.32324,0 1.77441,0 3.54882,0 5.32323,0 1.77441,0 3.54882,0 5.32323,0 1.77441,0 3.54882,0 5.32323,0 1.77441,0 3.54882,0 5.32323,0 1.77442,0 3.54883,0 5.32324,0 1.77441,0 3.54882,0 5.32323,0 1.77441,0 3.54882,0 5.32323,0 1.77441,0 3.54882,0 5.32323,0 1.77441,0 3.54883,0 5.32324,0 1.77441,0 3.54882,0 5.32323,0 1.77441,0 3.54882,0 5.32323,0 1.77441,0 3.54882,0 5.32323,0 1.77441,0 3.54882,0 5.32324,0 1.77441,0 3.54882,0 5.32323,0 1.77441,0 3.54882,0 5.32323,0 1.77441,0 3.54882,0 5.32323,0 1.77441,0 3.54882,0 5.32323,0 1.77442,0 3.54883,0 5.32324,0 1.77441,0 3.54882,0 5.32323,0 1.77441,0 3.54882,0 5.32323,0 1.77441,0 3.54882,0 5.32323,0 1.77441,0 3.54883,0 5.32324,0 1.77441,0 3.54882,0 5.32323,0"
       style="fill:#ffffff;fill-opacity:0;stroke:#000000;stroke-width:0.77375019;stroke-opacity:1"
       inkscape:connector-curvature="0" />
  </g>
</svg>
