<?xml version="1.0" encoding="UTF-8" standalone="no"?>
<!-- Created with Inkscape (http://www.inkscape.org/) -->

<svg
   xmlns:dc="http://purl.org/dc/elements/1.1/"
   xmlns:cc="http://creativecommons.org/ns#"
   xmlns:rdf="http://www.w3.org/1999/02/22-rdf-syntax-ns#"
   xmlns:svg="http://www.w3.org/2000/svg"
   xmlns="http://www.w3.org/2000/svg"
   xmlns:sodipodi="http://sodipodi.sourceforge.net/DTD/sodipodi-0.dtd"
   xmlns:inkscape="http://www.inkscape.org/namespaces/inkscape"
   width="210mm"
   height="297mm"
   viewBox="0 0 744.09448819 1052.3622047"
   id="svg2"
   version="1.1"
   inkscape:version="0.91 r13725"
   sodipodi:docname="dual_cluster.eps"
   inkscape:dataloss="true">
  <defs
     id="defs4" />
  <sodipodi:namedview
     id="base"
     pagecolor="#ffffff"
     bordercolor="#666666"
     borderopacity="1.0"
     inkscape:pageopacity="0.0"
     inkscape:pageshadow="2"
     inkscape:zoom="4"
     inkscape:cx="308.62316"
     inkscape:cy="811.10551"
     inkscape:document-units="px"
     inkscape:current-layer="layer1"
     showgrid="false"
     inkscape:snap-global="false"
     inkscape:window-width="1963"
     inkscape:window-height="1363"
     inkscape:window-x="1567"
     inkscape:window-y="14"
     inkscape:window-maximized="0" />
  <metadata
     id="metadata7">
    <rdf:RDF>
      <cc:Work
         rdf:about="">
        <dc:format>image/svg+xml</dc:format>
        <dc:type
           rdf:resource="http://purl.org/dc/dcmitype/StillImage" />
        <dc:title></dc:title>
      </cc:Work>
    </rdf:RDF>
  </metadata>
  <g
     inkscape:label="Layer 1"
     inkscape:groupmode="layer"
     id="layer1">
    <path
       style="fill:none;fill-rule:evenodd;stroke:#000000;stroke-width:1px;stroke-linecap:butt;stroke-linejoin:miter;stroke-opacity:1"
       d="m 394.33962,91.04145 -242.45283,251.88679 328.30189,83.01887 0,0 0,-0.9434"
       id="path3350"
       inkscape:connector-curvature="0" />
    <path
       style="fill:none;fill-rule:evenodd;stroke:#000000;stroke-width:1px;stroke-linecap:butt;stroke-linejoin:miter;stroke-opacity:1"
       d="M 394.33962,90.098054 480.18868,425.00371"
       id="path3352"
       inkscape:connector-curvature="0" />
    <text
       transform="scale(0.92804841,-1.07753)"
       sodipodi:linespacing="125%"
       id="text3431"
       y="-297.66885"
       x="260.72733"
       style="font-style:normal;font-weight:normal;font-size:7.14582205px;line-height:125%;font-family:sans-serif;letter-spacing:0px;word-spacing:0px;fill:#0000ff;fill-opacity:1;stroke:none;stroke-width:1px;stroke-linecap:butt;stroke-linejoin:miter;stroke-opacity:1;"
       xml:space="preserve"><tspan
         y="-297.66885"
         x="260.72733"
         id="tspan3433"
         sodipodi:role="line"
         style="-inkscape-font-specification:'sans-serif, Normal';font-family:sans-serif;font-weight:normal;font-style:normal;font-stretch:normal;font-variant:normal;font-size:15px;text-anchor:start;text-align:start;writing-mode:lr;line-height:125%;fill:#0000ff;">x</tspan></text>
    <text
       xml:space="preserve"
       style="font-style:normal;font-weight:normal;font-size:40px;line-height:125%;font-family:sans-serif;letter-spacing:0px;word-spacing:0px;fill:#000000;fill-opacity:1;stroke:none;stroke-width:1px;stroke-linecap:butt;stroke-linejoin:miter;stroke-opacity:1"
       x="266"
       y="311.06219"
       id="text3496"
       sodipodi:linespacing="125%"><tspan
         sodipodi:role="line"
         id="tspan3498"
         x="266"
         y="311.06219" /></text>
    <text
       xml:space="preserve"
       style="font-style:normal;font-weight:normal;font-size:61.84775162px;line-height:125%;font-family:sans-serif;letter-spacing:0px;word-spacing:0px;fill:#008000;fill-opacity:1;stroke:none;stroke-width:1px;stroke-linecap:butt;stroke-linejoin:miter;stroke-opacity:1;"
       x="222.48784"
       y="355.5842"
       id="text3500"
       sodipodi:linespacing="125%"
       transform="scale(1.1383714,0.87844795)"><tspan
         sodipodi:role="line"
         id="tspan3502"
         x="222.48784"
         y="355.5842"
         style="font-style:normal;font-variant:normal;font-weight:normal;font-stretch:normal;font-size:27.05838966px;line-height:125%;font-family:sans-serif;-inkscape-font-specification:'sans-serif, Normal';text-align:start;writing-mode:lr-tb;text-anchor:start;fill:#008000;">#</tspan></text>
    <text
       sodipodi:linespacing="125%"
       id="text3610"
       y="158.63695"
       x="-354.00027"
       style="font-style:normal;font-weight:normal;font-size:42.42701721px;line-height:125%;font-family:sans-serif;letter-spacing:0px;word-spacing:0px;fill:#ff0000;fill-opacity:1;stroke:none;stroke-width:1px;stroke-linecap:butt;stroke-linejoin:miter;stroke-opacity:1"
       xml:space="preserve"
       transform="scale(-1.0606755,0.94279542)"><tspan
         style="font-style:normal;font-variant:normal;font-weight:normal;font-stretch:normal;font-size:7.95506573px;line-height:125%;font-family:sans-serif;-inkscape-font-specification:'sans-serif, Normal';text-align:start;writing-mode:lr-tb;text-anchor:start;fill:#ff0000"
         y="158.63695"
         x="-354.00027"
         id="tspan3612"
         sodipodi:role="line">o</tspan></text>
    <text
       transform="scale(-1.0606755,0.94279542)"
       xml:space="preserve"
       style="font-style:normal;font-weight:normal;font-size:42.42701721px;line-height:125%;font-family:sans-serif;letter-spacing:0px;word-spacing:0px;fill:#ff0000;fill-opacity:1;stroke:none;stroke-width:1px;stroke-linecap:butt;stroke-linejoin:miter;stroke-opacity:1;"
       x="-367.147"
       y="203.1264"
       id="text3630"
       sodipodi:linespacing="125%"><tspan
         sodipodi:role="line"
         id="tspan3632"
         x="-367.147"
         y="203.1264"
         style="font-style:normal;font-variant:normal;font-weight:normal;font-stretch:normal;font-size:15px;line-height:125%;font-family:sans-serif;-inkscape-font-specification:'sans-serif, Normal';text-align:start;writing-mode:lr;text-anchor:start;fill:#ff0000;">o</tspan></text>
    <text
       xml:space="preserve"
       style="font-style:normal;font-weight:normal;font-size:63.13767242px;line-height:125%;font-family:sans-serif;letter-spacing:0px;word-spacing:0px;fill:#008000;fill-opacity:1;stroke:none;stroke-width:1px;stroke-linecap:butt;stroke-linejoin:miter;stroke-opacity:1"
       x="350.8555"
       y="181.08755"
       id="text3660"
       sodipodi:linespacing="125%"
       transform="scale(1.0325834,0.96844477)"><tspan
         sodipodi:role="line"
         id="tspan3662"
         x="350.8555"
         y="181.08755"
         style="font-style:normal;font-variant:normal;font-weight:normal;font-stretch:normal;font-size:27.62273216px;line-height:125%;font-family:sans-serif;-inkscape-font-specification:'sans-serif, Normal';text-align:start;writing-mode:lr-tb;text-anchor:start;fill:#008000">+</tspan></text>
    <text
       xml:space="preserve"
       style="font-style:normal;font-weight:normal;font-size:40px;line-height:125%;font-family:sans-serif;letter-spacing:0px;word-spacing:0px;fill:#800000;fill-opacity:1;stroke:none;stroke-width:1px;stroke-linecap:butt;stroke-linejoin:miter;stroke-opacity:1"
       x="329.40793"
       y="340.50464"
       id="text3664"
       sodipodi:linespacing="125%"><tspan
         sodipodi:role="line"
         id="tspan3666"
         x="329.40793"
         y="340.50464">*</tspan></text>
    <path
       style="fill:none;fill-rule:evenodd;stroke:#000000;stroke-width:0.99309385px;stroke-linecap:butt;stroke-linejoin:miter;stroke-opacity:1"
       d="m 441.87489,132.11255 c -10.28553,0.27616 -20.02132,0.3994 -25.06062,10.89368 -1.72717,3.5968 0.85707,6.83448 -2.67639,10.51366 -4.42276,4.60517 -23.83746,8.86695 -30.41337,8.86695"
       id="path4494"
       inkscape:connector-curvature="0" />
    <path
       style="fill:none;fill-rule:evenodd;stroke:#000000;stroke-width:2.25014591px;stroke-linecap:butt;stroke-linejoin:miter;stroke-opacity:1"
       d="m 405.93903,149.42954 c -3.80807,6.5303 -21.43611,9.84406 -22.41509,13.50702 7.06871,2.26532 19.62543,-0.0251 24.42993,5.96821"
       id="path4496"
       inkscape:connector-curvature="0" />
    <text
       xml:space="preserve"
       style="font-style:normal;font-weight:normal;font-size:40px;line-height:125%;font-family:sans-serif;letter-spacing:0px;word-spacing:0px;fill:#000000;fill-opacity:1;stroke:none;stroke-width:1px;stroke-linecap:butt;stroke-linejoin:miter;stroke-opacity:1"
       x="444.75"
       y="131.7372"
       id="text4498"
       sodipodi:linespacing="125%"><tspan
         sodipodi:role="line"
         id="tspan4500"
         x="444.75"
         y="131.7372" /></text>
    <text
       sodipodi:linespacing="125%"
       id="text4518"
       y="301.01477"
       x="121.81527"
       style="font-style:normal;font-weight:normal;font-size:49.97510529px;line-height:125%;font-family:sans-serif;letter-spacing:0px;word-spacing:0px;fill:#000000;fill-opacity:1;stroke:none;stroke-width:1px;stroke-linecap:butt;stroke-linejoin:miter;stroke-opacity:1"
       xml:space="preserve"
       transform="scale(1.021841,0.97862582)"><tspan
         style="font-style:normal;font-variant:normal;font-weight:normal;font-stretch:normal;font-size:49.97510529px;line-height:125%;font-family:Calibri;-inkscape-font-specification:'Calibri, Normal';text-align:start;writing-mode:lr-tb;text-anchor:start"
         id="tspan4520"
         sodipodi:role="line"
         x="121.81527"
         y="301.01477">α<tspan
   id="tspan4522"
   style="font-size:32.48381805px;baseline-shift:sub">1</tspan></tspan></text>
    <text
       xml:space="preserve"
       style="font-style:normal;font-weight:normal;font-size:49.37548065px;line-height:125%;font-family:sans-serif;letter-spacing:0px;word-spacing:0px;fill:#000000;fill-opacity:1;stroke:none;stroke-width:1px;stroke-linecap:butt;stroke-linejoin:miter;stroke-opacity:1"
       x="440.31512"
       y="134.86057"
       id="text4524"
       sodipodi:linespacing="125%"
       transform="scale(1.0095805,0.99051042)"><tspan
         sodipodi:role="line"
         id="tspan4526"
         style="font-style:normal;font-variant:normal;font-weight:normal;font-stretch:normal;font-size:49.37548065px;line-height:125%;font-family:Calibri;-inkscape-font-specification:'Calibri, Normal';text-align:start;writing-mode:lr-tb;text-anchor:start"
         x="440.31512"
         y="134.86057">α<tspan
   style="font-size:32.09406281px;baseline-shift:sub"
   id="tspan4530">2</tspan></tspan></text>
    <path
       style="fill:none;fill-rule:evenodd;stroke:#000000;stroke-width:1px;stroke-linecap:butt;stroke-linejoin:miter;stroke-opacity:1"
       d="m 156.25,281.3622 c 10.11418,-3.09044 34.93358,-5.81485 44,-0.375 3.4565,2.0739 5.64726,5.19008 8.5,7.875 4.85144,4.56607 -1.9531,-2.4531 2.25,1.75 2.71328,2.71328 5.01172,5.84839 7.625,8.625 0.47699,0.50681 1.85936,1.33105 2.375,1.75 8.1265,6.60279 18.64447,8.375 28.875,8.375"
       id="path4532"
       inkscape:connector-curvature="0" />
    <path
       style="fill:none;fill-rule:evenodd;stroke:#000000;stroke-width:1px;stroke-linecap:butt;stroke-linejoin:miter;stroke-opacity:1"
       d="m 250.5,309.3622 c -7.41572,1.31036 -22.81304,-0.93696 -28.125,4.375"
       id="path4536"
       inkscape:connector-curvature="0" />
    <path
       style="fill:none;fill-rule:evenodd;stroke:#000000;stroke-width:1px;stroke-linecap:butt;stroke-linejoin:miter;stroke-opacity:1"
       d="m 227.3,295.9622 c -0.47759,1.38519 0.23683,2.48845 0.625,3.75 0.55757,1.8121 2.35346,4.5622 4.25,5.375 5.56,2.38286 11.9879,2.8293 17.375,4.625"
       id="path4544"
       inkscape:connector-curvature="0" />
    <text
       xml:space="preserve"
       style="font-style:normal;font-weight:normal;font-size:33.41333389px;line-height:125%;font-family:sans-serif;letter-spacing:0px;word-spacing:0px;fill:#000000;fill-opacity:1;stroke:none;stroke-width:1px;stroke-linecap:butt;stroke-linejoin:miter;stroke-opacity:1"
       x="361.03824"
       y="322.41748"
       id="text4546"
       sodipodi:linespacing="125%"
       transform="scale(0.99617976,1.0038349)"><tspan
         sodipodi:role="line"
         id="tspan4548"
         x="361.03824"
         y="322.41748">P<tspan
   style="font-size:21.71866608px;baseline-shift:sub"
   id="tspan4550">t</tspan></tspan></text>
    <text
       xml:space="preserve"
       style="font-style:normal;font-variant:normal;font-weight:normal;font-stretch:normal;font-size:28.19993401px;line-height:125%;font-family:sans-serif;-inkscape-font-specification:'sans-serif, Normal';text-align:start;letter-spacing:0px;word-spacing:0px;writing-mode:lr-tb;text-anchor:start;fill:#000000;fill-opacity:1;stroke:none;stroke-width:1px;stroke-linecap:butt;stroke-linejoin:miter;stroke-opacity:1"
       x="343.8909"
       y="257.86035"
       id="text4552"
       sodipodi:linespacing="125%"
       transform="scale(0.97450984,1.0261569)"><tspan
         sodipodi:role="line"
         id="tspan4566"
         style="font-style:normal;font-variant:normal;font-weight:normal;font-stretch:normal;font-size:25.54272079px;line-height:125%;font-family:Calibri;-inkscape-font-specification:'Calibri, Normal';text-align:start;writing-mode:lr-tb;text-anchor:start"
         x="343.8909"
         y="257.86035">D<tspan
   style="font-style:normal;font-variant:normal;font-weight:normal;font-stretch:normal;font-size:25.54272079px;line-height:125%;font-family:Calibri;-inkscape-font-specification:'Calibri, Normal';text-align:start;writing-mode:lr-tb;baseline-shift:sub;text-anchor:start"
   id="tspan4568">KL</tspan>(α<tspan
   style="font-style:normal;font-variant:normal;font-weight:normal;font-stretch:normal;font-size:25.54272079px;line-height:125%;font-family:Calibri;-inkscape-font-specification:'Calibri, Normal';text-align:start;writing-mode:lr-tb;baseline-shift:sub;text-anchor:start"
   id="tspan4570">2</tspan> || P<tspan
   style="font-style:normal;font-variant:normal;font-weight:normal;font-stretch:normal;font-size:25.54272079px;line-height:125%;font-family:Calibri;-inkscape-font-specification:'Calibri, Normal';text-align:start;writing-mode:lr-tb;baseline-shift:sub;text-anchor:start"
   id="tspan4572">t</tspan>)</tspan></text>
    <text
       xml:space="preserve"
       style="font-style:normal;font-weight:normal;font-size:40px;line-height:125%;font-family:sans-serif;letter-spacing:0px;word-spacing:0px;fill:#000000;fill-opacity:1;stroke:none;stroke-width:1px;stroke-linecap:butt;stroke-linejoin:miter;stroke-opacity:1"
       x="299"
       y="488.36221"
       id="text4562"
       sodipodi:linespacing="125%"><tspan
         sodipodi:role="line"
         id="tspan4564"
         x="299"
         y="488.36221"></tspan></text>
    <text
       sodipodi:linespacing="125%"
       id="text4587"
       y="352.11923"
       x="236.03027"
       style="font-style:normal;font-variant:normal;font-weight:normal;font-stretch:normal;font-size:25.25534439px;line-height:125%;font-family:sans-serif;-inkscape-font-specification:'sans-serif, Normal';text-align:start;letter-spacing:0px;word-spacing:0px;writing-mode:lr-tb;text-anchor:start;fill:#000000;fill-opacity:1;stroke:none;stroke-width:1px;stroke-linecap:butt;stroke-linejoin:miter;stroke-opacity:1"
       xml:space="preserve"
       transform="scale(0.98968157,1.010426)"><tspan
         y="352.11923"
         x="236.03027"
         style="font-style:normal;font-variant:normal;font-weight:normal;font-stretch:normal;font-size:25.25529861px;line-height:125%;font-family:Calibri;-inkscape-font-specification:'Calibri, Normal';text-align:start;writing-mode:lr-tb;text-anchor:start"
         id="tspan4589"
         sodipodi:role="line">D<tspan
   id="tspan4591"
   style="font-style:normal;font-variant:normal;font-weight:normal;font-stretch:normal;font-size:25.25529861px;line-height:125%;font-family:Calibri;-inkscape-font-specification:'Calibri, Normal';text-align:start;writing-mode:lr-tb;baseline-shift:sub;text-anchor:start">KL</tspan>(α<tspan
   style="font-style:normal;font-variant:normal;font-weight:normal;font-stretch:normal;font-size:25.25529861px;line-height:125%;font-family:Calibri;-inkscape-font-specification:'Calibri, Normal';text-align:start;writing-mode:lr-tb;baseline-shift:sub;text-anchor:start"
   id="tspan4599">1</tspan> || P<tspan
   id="tspan4595"
   style="font-style:normal;font-variant:normal;font-weight:normal;font-stretch:normal;font-size:25.25529861px;line-height:125%;font-family:Calibri;-inkscape-font-specification:'Calibri, Normal';text-align:start;writing-mode:lr-tb;baseline-shift:sub;text-anchor:start">t</tspan>)</tspan></text>
    <text
       xml:space="preserve"
       style="font-style:normal;font-weight:normal;font-size:7.14582205px;line-height:125%;font-family:sans-serif;letter-spacing:0px;word-spacing:0px;fill:#0000ff;fill-opacity:1;stroke:none;stroke-width:1px;stroke-linecap:butt;stroke-linejoin:miter;stroke-opacity:1;"
       x="276.24374"
       y="-300.91702"
       id="text4696"
       sodipodi:linespacing="125%"
       transform="scale(0.92804841,-1.07753)"><tspan
         style="font-style:normal;font-variant:normal;font-weight:normal;font-stretch:normal;font-size:15px;line-height:125%;font-family:sans-serif;-inkscape-font-specification:'sans-serif, Normal';text-align:start;writing-mode:lr-tb;text-anchor:start;fill:#0000ff;"
         sodipodi:role="line"
         id="tspan4698"
         x="276.24374"
         y="-300.91702">x</tspan></text>
    <text
       transform="scale(0.92804841,-1.07753)"
       sodipodi:linespacing="125%"
       id="text4700"
       y="-290.15167"
       x="272.79565"
       style="font-style:normal;font-weight:normal;font-size:7.14582205px;line-height:125%;font-family:sans-serif;letter-spacing:0px;word-spacing:0px;fill:#0000ff;fill-opacity:1;stroke:none;stroke-width:1px;stroke-linecap:butt;stroke-linejoin:miter;stroke-opacity:1;"
       xml:space="preserve"><tspan
         y="-290.15167"
         x="272.79565"
         id="tspan4702"
         sodipodi:role="line"
         style="font-style:normal;font-variant:normal;font-weight:normal;font-stretch:normal;font-size:15px;line-height:125%;font-family:sans-serif;-inkscape-font-specification:'sans-serif, Normal';text-align:start;writing-mode:lr-tb;text-anchor:start;fill:#0000ff;">x</tspan></text>
    <text
       transform="scale(0.92804841,-1.07753)"
       sodipodi:linespacing="125%"
       id="text4704"
       y="-292.93582"
       x="294.02298"
       style="font-style:normal;font-weight:normal;font-size:7.14582205px;line-height:125%;font-family:sans-serif;letter-spacing:0px;word-spacing:0px;fill:#0000ff;fill-opacity:1;stroke:none;stroke-width:1px;stroke-linecap:butt;stroke-linejoin:miter;stroke-opacity:1;"
       xml:space="preserve"><tspan
         y="-292.93582"
         x="294.02298"
         id="tspan4706"
         sodipodi:role="line"
         style="font-style:normal;font-variant:normal;font-weight:normal;font-stretch:normal;font-size:15px;line-height:125%;font-family:sans-serif;-inkscape-font-specification:'sans-serif, Normal';text-align:start;writing-mode:lr-tb;text-anchor:start;fill:#0000ff;">x</tspan></text>
    <text
       xml:space="preserve"
       style="font-style:normal;font-weight:normal;font-size:7.14582205px;line-height:125%;font-family:sans-serif;letter-spacing:0px;word-spacing:0px;fill:#0000ff;fill-opacity:1;stroke:none;stroke-width:1px;stroke-linecap:butt;stroke-linejoin:miter;stroke-opacity:1"
       x="309.25461"
       y="-285.3924"
       id="text4712"
       sodipodi:linespacing="125%"
       transform="scale(0.92804841,-1.07753)"><tspan
         style="font-style:normal;font-variant:normal;font-weight:normal;font-stretch:normal;font-size:15px;line-height:125%;font-family:sans-serif;-inkscape-font-specification:'sans-serif, Normal';text-align:start;writing-mode:lr-tb;text-anchor:start;fill:#0000ff"
         sodipodi:role="line"
         id="tspan4714"
         x="309.25461"
         y="-285.3924">x</tspan></text>
    <text
       transform="scale(0.92804841,-1.07753)"
       sodipodi:linespacing="125%"
       id="text4716"
       y="-266.1152"
       x="318.37515"
       style="font-style:normal;font-weight:normal;font-size:7.14582205px;line-height:125%;font-family:sans-serif;letter-spacing:0px;word-spacing:0px;fill:#0000ff;fill-opacity:1;stroke:none;stroke-width:1px;stroke-linecap:butt;stroke-linejoin:miter;stroke-opacity:1;"
       xml:space="preserve"><tspan
         y="-266.1152"
         x="318.37515"
         id="tspan4718"
         sodipodi:role="line"
         style="font-style:normal;font-variant:normal;font-weight:normal;font-stretch:normal;font-size:15px;line-height:125%;font-family:sans-serif;-inkscape-font-specification:'sans-serif, Normal';text-align:start;writing-mode:lr-tb;text-anchor:start;fill:#0000ff;">x</tspan></text>
    <text
       xml:space="preserve"
       style="font-style:normal;font-weight:normal;font-size:7.14582205px;line-height:125%;font-family:sans-serif;letter-spacing:0px;word-spacing:0px;fill:#0000ff;fill-opacity:1;stroke:none;stroke-width:1px;stroke-linecap:butt;stroke-linejoin:miter;stroke-opacity:1;"
       x="250.27525"
       y="-265.74399"
       id="text4720"
       sodipodi:linespacing="125%"
       transform="scale(0.92804841,-1.07753)"><tspan
         style="font-style:normal;font-variant:normal;font-weight:normal;font-stretch:normal;font-size:15px;line-height:125%;font-family:sans-serif;-inkscape-font-specification:'sans-serif, Normal';text-align:start;writing-mode:lr-tb;text-anchor:start;fill:#0000ff;"
         sodipodi:role="line"
         id="tspan4722"
         x="250.27525"
         y="-265.74399">x</tspan></text>
    <text
       transform="scale(0.92804841,-1.07753)"
       sodipodi:linespacing="125%"
       id="text4724"
       y="-274.28204"
       x="262.55908"
       style="font-style:normal;font-weight:normal;font-size:7.14582205px;line-height:125%;font-family:sans-serif;letter-spacing:0px;word-spacing:0px;fill:#0000ff;fill-opacity:1;stroke:none;stroke-width:1px;stroke-linecap:butt;stroke-linejoin:miter;stroke-opacity:1"
       xml:space="preserve"><tspan
         y="-274.28204"
         x="262.55908"
         id="tspan4726"
         sodipodi:role="line"
         style="font-style:normal;font-variant:normal;font-weight:normal;font-stretch:normal;font-size:15px;line-height:125%;font-family:sans-serif;-inkscape-font-specification:'sans-serif, Normal';text-align:start;writing-mode:lr-tb;text-anchor:start;fill:#0000ff">x</tspan></text>
    <text
       xml:space="preserve"
       style="font-style:normal;font-weight:normal;font-size:7.14582205px;line-height:125%;font-family:sans-serif;letter-spacing:0px;word-spacing:0px;fill:#0000ff;fill-opacity:1;stroke:none;stroke-width:1px;stroke-linecap:butt;stroke-linejoin:miter;stroke-opacity:1"
       x="275.05841"
       y="-252.56569"
       id="text4728"
       sodipodi:linespacing="125%"
       transform="scale(0.92804841,-1.07753)"><tspan
         style="font-style:normal;font-variant:normal;font-weight:normal;font-stretch:normal;font-size:15px;line-height:125%;font-family:sans-serif;-inkscape-font-specification:'sans-serif, Normal';text-align:start;writing-mode:lr-tb;text-anchor:start;fill:#0000ff"
         sodipodi:role="line"
         id="tspan4730"
         x="275.05841"
         y="-252.56569">x</tspan></text>
    <text
       transform="scale(0.92804841,-1.07753)"
       sodipodi:linespacing="125%"
       id="text4732"
       y="-262.03177"
       x="278.61429"
       style="font-style:normal;font-weight:normal;font-size:7.14582205px;line-height:125%;font-family:sans-serif;letter-spacing:0px;word-spacing:0px;fill:#0000ff;fill-opacity:1;stroke:none;stroke-width:1px;stroke-linecap:butt;stroke-linejoin:miter;stroke-opacity:1;"
       xml:space="preserve"><tspan
         y="-262.03177"
         x="278.61429"
         id="tspan4734"
         sodipodi:role="line"
         style="font-style:normal;font-variant:normal;font-weight:normal;font-stretch:normal;font-size:15px;line-height:125%;font-family:sans-serif;-inkscape-font-specification:'sans-serif, Normal';text-align:start;writing-mode:lr-tb;text-anchor:start;fill:#0000ff;">x</tspan></text>
    <text
       xml:space="preserve"
       style="font-style:normal;font-weight:normal;font-size:7.14582205px;line-height:125%;font-family:sans-serif;letter-spacing:0px;word-spacing:0px;fill:#0000ff;fill-opacity:1;stroke:none;stroke-width:1px;stroke-linecap:butt;stroke-linejoin:miter;stroke-opacity:1;"
       x="296.07028"
       y="-260.3613"
       id="text4736"
       sodipodi:linespacing="125%"
       transform="scale(0.92804841,-1.07753)"><tspan
         style="font-style:normal;font-variant:normal;font-weight:normal;font-stretch:normal;font-size:15px;line-height:125%;font-family:sans-serif;-inkscape-font-specification:'sans-serif, Normal';text-align:start;writing-mode:lr-tb;text-anchor:start;fill:#0000ff;"
         sodipodi:role="line"
         id="tspan4738"
         x="296.07028"
         y="-260.3613">x</tspan></text>
    <text
       transform="scale(0.92804841,-1.07753)"
       sodipodi:linespacing="125%"
       id="text4740"
       y="-250.33838"
       x="307.81534"
       style="font-style:normal;font-weight:normal;font-size:7.14582205px;line-height:125%;font-family:sans-serif;letter-spacing:0px;word-spacing:0px;fill:#0000ff;fill-opacity:1;stroke:none;stroke-width:1px;stroke-linecap:butt;stroke-linejoin:miter;stroke-opacity:1;"
       xml:space="preserve"><tspan
         y="-250.33838"
         x="307.81534"
         id="tspan4742"
         sodipodi:role="line"
         style="font-style:normal;font-variant:normal;font-weight:normal;font-stretch:normal;font-size:15px;line-height:125%;font-family:sans-serif;-inkscape-font-specification:'sans-serif, Normal';text-align:start;writing-mode:lr-tb;text-anchor:start;fill:#0000ff;">x</tspan></text>
    <text
       transform="scale(0.92804841,-1.07753)"
       sodipodi:linespacing="125%"
       id="text4744"
       y="-270.84839"
       x="304.34409"
       style="font-style:normal;font-weight:normal;font-size:7.14582205px;line-height:125%;font-family:sans-serif;letter-spacing:0px;word-spacing:0px;fill:#0000ff;fill-opacity:1;stroke:none;stroke-width:1px;stroke-linecap:butt;stroke-linejoin:miter;stroke-opacity:1"
       xml:space="preserve"><tspan
         y="-270.84839"
         x="304.34409"
         id="tspan4746"
         sodipodi:role="line"
         style="font-style:normal;font-variant:normal;font-weight:normal;font-stretch:normal;font-size:15px;line-height:125%;font-family:sans-serif;-inkscape-font-specification:'sans-serif, Normal';text-align:start;writing-mode:lr-tb;text-anchor:start;fill:#0000ff">x</tspan></text>
    <text
       xml:space="preserve"
       style="font-style:normal;font-weight:normal;font-size:7.14582205px;line-height:125%;font-family:sans-serif;letter-spacing:0px;word-spacing:0px;fill:#0000ff;fill-opacity:1;stroke:none;stroke-width:1px;stroke-linecap:butt;stroke-linejoin:miter;stroke-opacity:1;"
       x="263.74438"
       y="-259.61884"
       id="text4748"
       sodipodi:linespacing="125%"
       transform="scale(0.92804841,-1.07753)"><tspan
         style="font-style:normal;font-variant:normal;font-weight:normal;font-stretch:normal;font-size:15px;line-height:125%;font-family:sans-serif;-inkscape-font-specification:'sans-serif, Normal';text-align:start;writing-mode:lr-tb;text-anchor:start;fill:#0000ff;"
         sodipodi:role="line"
         id="tspan4750"
         x="263.74438"
         y="-259.61884">x</tspan></text>
    <text
       transform="scale(0.92804841,-1.07753)"
       sodipodi:linespacing="125%"
       id="text4752"
       y="-259.61884"
       x="263.74438"
       style="font-style:normal;font-weight:normal;font-size:7.14582205px;line-height:125%;font-family:sans-serif;letter-spacing:0px;word-spacing:0px;fill:#0000ff;fill-opacity:1;stroke:none;stroke-width:1px;stroke-linecap:butt;stroke-linejoin:miter;stroke-opacity:1;"
       xml:space="preserve"><tspan
         y="-259.61884"
         x="263.74438"
         id="tspan4754"
         sodipodi:role="line"
         style="font-style:normal;font-variant:normal;font-weight:normal;font-stretch:normal;font-size:15px;line-height:125%;font-family:sans-serif;-inkscape-font-specification:'sans-serif, Normal';text-align:start;writing-mode:lr-tb;text-anchor:start;fill:#0000ff;">x</tspan></text>
    <text
       sodipodi:linespacing="125%"
       id="text4756"
       y="189.01942"
       x="-367.147"
       style="font-style:normal;font-weight:normal;font-size:42.42701721px;line-height:125%;font-family:sans-serif;letter-spacing:0px;word-spacing:0px;fill:#ff0000;fill-opacity:1;stroke:none;stroke-width:1px;stroke-linecap:butt;stroke-linejoin:miter;stroke-opacity:1;"
       xml:space="preserve"
       transform="scale(-1.0606755,0.94279542)"><tspan
         style="font-style:normal;font-variant:normal;font-weight:normal;font-stretch:normal;font-size:15px;line-height:125%;font-family:sans-serif;-inkscape-font-specification:'sans-serif, Normal';text-align:start;writing-mode:lr-tb;text-anchor:start;fill:#ff0000;"
         y="189.01942"
         x="-367.147"
         id="tspan4758"
         sodipodi:role="line">o</tspan></text>
    <text
       transform="scale(-1.0606755,0.94279542)"
       xml:space="preserve"
       style="font-style:normal;font-weight:normal;font-size:42.42701721px;line-height:125%;font-family:sans-serif;letter-spacing:0px;word-spacing:0px;fill:#ff0000;fill-opacity:1;stroke:none;stroke-width:1px;stroke-linecap:butt;stroke-linejoin:miter;stroke-opacity:1;"
       x="-376.48068"
       y="195.17134"
       id="text4760"
       sodipodi:linespacing="125%"><tspan
         sodipodi:role="line"
         id="tspan4762"
         x="-376.48068"
         y="195.17134"
         style="font-style:normal;font-variant:normal;font-weight:normal;font-stretch:normal;font-size:15px;line-height:125%;font-family:sans-serif;-inkscape-font-specification:'sans-serif, Normal';text-align:start;writing-mode:lr-tb;text-anchor:start;fill:#ff0000;">o</tspan></text>
    <text
       sodipodi:linespacing="125%"
       id="text4764"
       y="183.82211"
       x="-376.95209"
       style="font-style:normal;font-weight:normal;font-size:42.42701721px;line-height:125%;font-family:sans-serif;letter-spacing:0px;word-spacing:0px;fill:#ff0000;fill-opacity:1;stroke:none;stroke-width:1px;stroke-linecap:butt;stroke-linejoin:miter;stroke-opacity:1;"
       xml:space="preserve"
       transform="scale(-1.0606755,0.94279542)"><tspan
         style="font-style:normal;font-variant:normal;font-weight:normal;font-stretch:normal;font-size:15px;line-height:125%;font-family:sans-serif;-inkscape-font-specification:'sans-serif, Normal';text-align:start;writing-mode:lr-tb;text-anchor:start;fill:#ff0000;"
         y="183.82211"
         x="-376.95209"
         id="tspan4766"
         sodipodi:role="line">o</tspan></text>
    <text
       transform="scale(-1.0606755,0.94279542)"
       xml:space="preserve"
       style="font-style:normal;font-weight:normal;font-size:42.42701721px;line-height:125%;font-family:sans-serif;letter-spacing:0px;word-spacing:0px;fill:#ff0000;fill-opacity:1;stroke:none;stroke-width:1px;stroke-linecap:butt;stroke-linejoin:miter;stroke-opacity:1;"
       x="-375.91501"
       y="160.91153"
       id="text4768"
       sodipodi:linespacing="125%"><tspan
         sodipodi:role="line"
         id="tspan4770"
         x="-375.91501"
         y="160.91153"
         style="font-style:normal;font-variant:normal;font-weight:normal;font-stretch:normal;font-size:15px;line-height:125%;font-family:sans-serif;-inkscape-font-specification:'sans-serif, Normal';text-align:start;writing-mode:lr-tb;text-anchor:start;fill:#ff0000;">o</tspan></text>
    <text
       sodipodi:linespacing="125%"
       id="text4772"
       y="181.06436"
       x="-330.18942"
       style="font-style:normal;font-weight:normal;font-size:42.42701721px;line-height:125%;font-family:sans-serif;letter-spacing:0px;word-spacing:0px;fill:#ff0000;fill-opacity:1;stroke:none;stroke-width:1px;stroke-linecap:butt;stroke-linejoin:miter;stroke-opacity:1;"
       xml:space="preserve"
       transform="scale(-1.0606755,0.94279542)"><tspan
         style="font-style:normal;font-variant:normal;font-weight:normal;font-stretch:normal;font-size:15px;line-height:125%;font-family:sans-serif;-inkscape-font-specification:'sans-serif, Normal';text-align:start;writing-mode:lr-tb;text-anchor:start;fill:#ff0000;"
         y="181.06436"
         x="-330.18942"
         id="tspan4774"
         sodipodi:role="line">o</tspan></text>
    <text
       transform="scale(-1.0606755,0.94279542)"
       xml:space="preserve"
       style="font-style:normal;font-weight:normal;font-size:42.42701721px;line-height:125%;font-family:sans-serif;letter-spacing:0px;word-spacing:0px;fill:#ff0000;fill-opacity:1;stroke:none;stroke-width:1px;stroke-linecap:butt;stroke-linejoin:miter;stroke-opacity:1;"
       x="-341.03159"
       y="172.79109"
       id="text4776"
       sodipodi:linespacing="125%"><tspan
         sodipodi:role="line"
         id="tspan4778"
         x="-341.03159"
         y="172.79109"
         style="font-style:normal;font-variant:normal;font-weight:normal;font-stretch:normal;font-size:15px;line-height:125%;font-family:sans-serif;-inkscape-font-specification:'sans-serif, Normal';text-align:start;writing-mode:lr-tb;text-anchor:start;fill:#ff0000;">o</tspan></text>
    <text
       sodipodi:linespacing="125%"
       id="text4780"
       y="169.39693"
       x="-352.53369"
       style="font-style:normal;font-weight:normal;font-size:42.42701721px;line-height:125%;font-family:sans-serif;letter-spacing:0px;word-spacing:0px;fill:#ff0000;fill-opacity:1;stroke:none;stroke-width:1px;stroke-linecap:butt;stroke-linejoin:miter;stroke-opacity:1;"
       xml:space="preserve"
       transform="scale(-1.0606755,0.94279542)"><tspan
         style="font-style:normal;font-variant:normal;font-weight:normal;font-stretch:normal;font-size:15px;line-height:125%;font-family:sans-serif;-inkscape-font-specification:'sans-serif, Normal';text-align:start;writing-mode:lr-tb;text-anchor:start;fill:#ff0000;"
         y="169.39693"
         x="-352.53369"
         id="tspan4782"
         sodipodi:role="line">o</tspan></text>
    <text
       transform="scale(-1.0606755,0.94279542)"
       xml:space="preserve"
       style="font-style:normal;font-weight:normal;font-size:42.42701721px;line-height:125%;font-family:sans-serif;letter-spacing:0px;word-spacing:0px;fill:#ff0000;fill-opacity:1;stroke:none;stroke-width:1px;stroke-linecap:butt;stroke-linejoin:miter;stroke-opacity:1"
       x="-354.51355"
       y="196.97449"
       id="text4784"
       sodipodi:linespacing="125%"><tspan
         sodipodi:role="line"
         id="tspan4786"
         x="-354.51355"
         y="196.97449"
         style="font-style:normal;font-variant:normal;font-weight:normal;font-stretch:normal;font-size:15px;line-height:125%;font-family:sans-serif;-inkscape-font-specification:'sans-serif, Normal';text-align:start;writing-mode:lr-tb;text-anchor:start;fill:#ff0000">o</tspan></text>
    <text
       sodipodi:linespacing="125%"
       id="text4788"
       y="164.09355"
       x="-363.84723"
       style="font-style:normal;font-weight:normal;font-size:42.42701721px;line-height:125%;font-family:sans-serif;letter-spacing:0px;word-spacing:0px;fill:#ff0000;fill-opacity:1;stroke:none;stroke-width:1px;stroke-linecap:butt;stroke-linejoin:miter;stroke-opacity:1;"
       xml:space="preserve"
       transform="scale(-1.0606755,0.94279542)"><tspan
         style="font-style:normal;font-variant:normal;font-weight:normal;font-stretch:normal;font-size:15px;line-height:125%;font-family:sans-serif;-inkscape-font-specification:'sans-serif, Normal';text-align:start;writing-mode:lr-tb;text-anchor:start;fill:#ff0000;"
         y="164.09355"
         x="-363.84723"
         id="tspan4790"
         sodipodi:role="line">o</tspan></text>
    <text
       transform="scale(-1.0606755,0.94279542)"
       xml:space="preserve"
       style="font-style:normal;font-weight:normal;font-size:42.42701721px;line-height:125%;font-family:sans-serif;letter-spacing:0px;word-spacing:0px;fill:#ff0000;fill-opacity:1;stroke:none;stroke-width:1px;stroke-linecap:butt;stroke-linejoin:miter;stroke-opacity:1"
       x="-338.10892"
       y="195.59561"
       id="text4792"
       sodipodi:linespacing="125%"><tspan
         sodipodi:role="line"
         id="tspan4794"
         x="-338.10892"
         y="195.59561"
         style="font-style:normal;font-variant:normal;font-weight:normal;font-stretch:normal;font-size:15px;line-height:125%;font-family:sans-serif;-inkscape-font-specification:'sans-serif, Normal';text-align:start;writing-mode:lr-tb;text-anchor:start;fill:#ff0000">o</tspan></text>
    <text
       sodipodi:linespacing="125%"
       id="text4796"
       y="150.51691"
       x="-359.22754"
       style="font-style:normal;font-weight:normal;font-size:42.42701721px;line-height:125%;font-family:sans-serif;letter-spacing:0px;word-spacing:0px;fill:#ff0000;fill-opacity:1;stroke:none;stroke-width:1px;stroke-linecap:butt;stroke-linejoin:miter;stroke-opacity:1;"
       xml:space="preserve"
       transform="scale(-1.0606755,0.94279542)"><tspan
         style="font-style:normal;font-variant:normal;font-weight:normal;font-stretch:normal;font-size:15px;line-height:125%;font-family:sans-serif;-inkscape-font-specification:'sans-serif, Normal';text-align:start;writing-mode:lr-tb;text-anchor:start;fill:#ff0000;"
         y="150.51691"
         x="-359.22754"
         id="tspan4798"
         sodipodi:role="line">o</tspan></text>
    <text
       transform="scale(-1.0606755,0.94279542)"
       xml:space="preserve"
       style="font-style:normal;font-weight:normal;font-size:42.42701721px;line-height:125%;font-family:sans-serif;letter-spacing:0px;word-spacing:0px;fill:#ff0000;fill-opacity:1;stroke:none;stroke-width:1px;stroke-linecap:butt;stroke-linejoin:miter;stroke-opacity:1;"
       x="-368.56122"
       y="150.72903"
       id="text4800"
       sodipodi:linespacing="125%"><tspan
         sodipodi:role="line"
         id="tspan4802"
         x="-368.56122"
         y="150.72903"
         style="font-style:normal;font-variant:normal;font-weight:normal;font-stretch:normal;font-size:15px;line-height:125%;font-family:sans-serif;-inkscape-font-specification:'sans-serif, Normal';text-align:start;writing-mode:lr-tb;text-anchor:start;fill:#ff0000;">o</tspan></text>
    <text
       sodipodi:linespacing="125%"
       id="text4804"
       y="183.82211"
       x="-341.8801"
       style="font-style:normal;font-weight:normal;font-size:42.42701721px;line-height:125%;font-family:sans-serif;letter-spacing:0px;word-spacing:0px;fill:#ff0000;fill-opacity:1;stroke:none;stroke-width:1px;stroke-linecap:butt;stroke-linejoin:miter;stroke-opacity:1;"
       xml:space="preserve"
       transform="scale(-1.0606755,0.94279542)"><tspan
         style="font-style:normal;font-variant:normal;font-weight:normal;font-stretch:normal;font-size:15px;line-height:125%;font-family:sans-serif;-inkscape-font-specification:'sans-serif, Normal';text-align:start;writing-mode:lr-tb;text-anchor:start;fill:#ff0000;"
         y="183.82211"
         x="-341.8801"
         id="tspan4806"
         sodipodi:role="line">o</tspan></text>
    <text
       transform="scale(-1.0606755,0.94279542)"
       xml:space="preserve"
       style="font-style:normal;font-weight:normal;font-size:42.42701721px;line-height:125%;font-family:sans-serif;letter-spacing:0px;word-spacing:0px;fill:#ff0000;fill-opacity:1;stroke:none;stroke-width:1px;stroke-linecap:butt;stroke-linejoin:miter;stroke-opacity:1;"
       x="-346.78262"
       y="161.12366"
       id="text4808"
       sodipodi:linespacing="125%"><tspan
         sodipodi:role="line"
         id="tspan4810"
         x="-346.78262"
         y="161.12366"
         style="font-style:normal;font-variant:normal;font-weight:normal;font-stretch:normal;font-size:15px;line-height:125%;font-family:sans-serif;-inkscape-font-specification:'sans-serif, Normal';text-align:start;writing-mode:lr-tb;text-anchor:start;fill:#ff0000;">o</tspan></text>
    <path
       style="fill:none;fill-rule:evenodd;stroke:#000000;stroke-width:1.01073325;stroke-linecap:butt;stroke-linejoin:miter;stroke-miterlimit:4;stroke-dasharray:6.06439954, 6.06439954;stroke-dashoffset:0;stroke-opacity:1"
       d="m 372.00826,170.01502 c -56.46332,50.30011 -34.2659,142.73645 -34.2659,142.73645 l 0,0"
       id="path5203"
       inkscape:connector-curvature="0" />
    <path
       style="fill:none;fill-rule:evenodd;stroke:#000000;stroke-width:1;stroke-linecap:butt;stroke-linejoin:miter;stroke-opacity:1;stroke-miterlimit:4;stroke-dasharray:6,6;stroke-dashoffset:0"
       d="m 277.6,304.9622 c 26.4,-6.4 53.2,7.6 53.2,7.6 l 0,0"
       id="path5205"
       inkscape:connector-curvature="0" />
    <path
       style="fill:#ff0000;stroke-width:1;stroke-miterlimit:4;stroke-dasharray:6, 6;stroke-dashoffset:0"
       d="m 383.13924,189.74298 c -1.55362,-1.55362 -0.53063,-4.99839 1.48437,-4.99839 2.01309,0 2.74339,4.29516 0.89821,5.28267 -1.32616,0.70974 -1.39702,0.70128 -2.38258,-0.28428 z"
       id="path5228"
       inkscape:connector-curvature="0" />
    <path
       style="fill:#ff0000;stroke-width:1;stroke-miterlimit:4;stroke-dasharray:6, 6;stroke-dashoffset:0"
       d=""
       id="path5230"
       inkscape:connector-curvature="0" />
    <path
       style="fill:#ff0000;stroke-width:1;stroke-miterlimit:4;stroke-dasharray:6, 6;stroke-dashoffset:0"
       d="m 392.58758,181.87364 c -0.95651,-2.49264 0.99047,-5.39066 2.83937,-4.22631 1.09129,0.68725 1.41142,1.91298 0.96458,3.69333 -0.2516,1.00246 -0.67169,1.2834 -1.91905,1.2834 -0.8881,0 -1.72475,-0.33309 -1.8849,-0.75042 z"
       id="path5232"
       inkscape:connector-curvature="0" />
    <path
       style="fill:#ff0000;stroke-width:1;stroke-miterlimit:4;stroke-dasharray:6, 6;stroke-dashoffset:0"
       d="m 393.21175,181.79099 c -0.98585,-0.98586 -0.97086,-0.85601 -0.30207,-2.61504 0.39243,-1.03218 0.842,-1.35243 1.72293,-1.22731 2.06924,0.2939 1.85784,4.62023 -0.22806,4.6673 -0.19785,0.004 -0.73461,-0.36676 -1.1928,-0.82495 z"
       id="path5234"
       inkscape:connector-curvature="0" />
    <path
       style="fill:#ff0000;stroke-width:1;stroke-miterlimit:4;stroke-dasharray:6, 6;stroke-dashoffset:0"
       d="m 382.58786,191.14092 c -1.26829,-0.67815 -1.86872,-1.85262 -1.84486,-3.60868 0.0329,-2.41899 1.39435,-3.75887 3.81948,-3.75887 1.69371,0 2.52515,0.41752 3.30453,1.65941 0.74159,1.18169 0.58326,3.88021 -0.28273,4.81896 -1.25799,1.36368 -3.39706,1.74436 -4.99642,0.88918 z m 3.75209,-1.1573 c 1.17414,-1.24981 0.87697,-4.39096 -0.48434,-5.11951 -0.9525,-0.50976 -2.25291,-0.30681 -3.03308,0.47336 -0.64531,0.6453 -0.73077,0.9062 -0.73077,2.23082 0,1.24905 0.1083,1.62875 0.64722,2.26923 0.55499,0.65956 0.81599,0.76918 1.83142,0.76918 0.93893,0 1.30544,-0.12905 1.76955,-0.62308 z"
       id="path5236"
       inkscape:connector-curvature="0" />
    <path
       style="fill:#ff0000;stroke-width:1;stroke-miterlimit:4;stroke-dasharray:6, 6;stroke-dashoffset:0"
       d=""
       id="path5238"
       inkscape:connector-curvature="0" />
    <path
       style="fill:#ff0000;stroke-width:1;stroke-miterlimit:4;stroke-dasharray:6, 6;stroke-dashoffset:0"
       d=""
       id="path5240"
       inkscape:connector-curvature="0" />
    <path
       style="fill:#ff0000;stroke-width:1;stroke-miterlimit:4;stroke-dasharray:6, 6;stroke-dashoffset:0"
       d="m 383.15456,176.72255 c -1.22935,-0.86107 -1.22935,-3.87063 0,-4.7317 0.56113,-0.39303 1.82717,-0.50661 2.551,-0.22886 1.4638,0.56172 1.4638,4.6277 0,5.18941 -0.72383,0.27776 -1.98987,0.16418 -2.551,-0.22885 z"
       id="path5242"
       inkscape:connector-curvature="0" />
    <path
       style="fill:#ff0000;stroke-width:1;stroke-miterlimit:4;stroke-dasharray:6, 6;stroke-dashoffset:0"
       d="m 382.94301,176.33045 c -0.3529,-0.38995 -0.47625,-0.90114 -0.47625,-1.97375 0,-1.92702 0.49266,-2.5 2.14957,-2.5 1.53706,0 1.97543,0.55478 1.97543,2.5 0,1.94522 -0.43837,2.5 -1.97543,2.5 -0.89948,0 -1.31547,-0.13083 -1.67332,-0.52625 z"
       id="path5244"
       inkscape:connector-curvature="0" />
    <path
       style="fill:#ff0000;stroke-width:1;stroke-miterlimit:4;stroke-dasharray:6, 6;stroke-dashoffset:0"
       d="m 382.94301,176.33045 c -0.3529,-0.38995 -0.47625,-0.90114 -0.47625,-1.97375 0,-1.92702 0.49266,-2.5 2.14957,-2.5 1.53706,0 1.97543,0.55478 1.97543,2.5 0,1.94522 -0.43837,2.5 -1.97543,2.5 -0.89948,0 -1.31547,-0.13083 -1.67332,-0.52625 z"
       id="path5246"
       inkscape:connector-curvature="0" />
    <path
       style="fill:#ff0000;stroke-width:1;stroke-miterlimit:4;stroke-dasharray:6, 6;stroke-dashoffset:0"
       d="m 393.86928,172.00782 c -1.22772,-0.68047 -1.66144,-2.68353 -0.89993,-4.15613 0.88051,-1.70272 3.11431,-1.70272 3.99482,0 0.74245,1.43574 0.29413,3.52676 -0.8871,4.1376 -0.86639,0.44803 -1.42443,0.45271 -2.20779,0.0185 z"
       id="path5248"
       inkscape:connector-curvature="0" />
    <path
       style="fill:#ff0000;stroke-width:1;stroke-miterlimit:4;stroke-dasharray:6, 6;stroke-dashoffset:0"
       d="m 393.6571,171.72433 c -1.1804,-0.82679 -1.2119,-3.45501 -0.054,-4.50293 0.6998,-0.63331 2.10918,-0.60525 2.76958,0.0551 1.04621,1.04621 1.02003,3.52876 -0.0463,4.39265 -0.66587,0.53944 -1.94026,0.56576 -2.6693,0.0551 z"
       id="path5250"
       inkscape:connector-curvature="0" />
    <path
       style="fill:#ff0000;stroke-width:1;stroke-miterlimit:4;stroke-dasharray:6, 6;stroke-dashoffset:0"
       d="m 392.649,150.43938 c -1.39278,-0.56039 -1.33062,-4.63648 0.079,-5.17739 0.76742,-0.29448 2.05986,-0.15412 2.59844,0.28221 1.11425,0.90269 1.11425,3.72231 0,4.625 -0.51056,0.41362 -1.95788,0.55967 -2.6774,0.27018 z"
       id="path5252"
       inkscape:connector-curvature="0" />
    <path
       style="fill:#ff0000;stroke-width:1;stroke-miterlimit:4;stroke-dasharray:6, 6;stroke-dashoffset:0"
       d="m 379.65456,153.22255 c -1.22935,-0.86107 -1.22935,-3.87063 0,-4.7317 0.56113,-0.39303 1.82717,-0.50661 2.551,-0.22886 1.4638,0.56172 1.4638,4.6277 0,5.18941 -0.72383,0.27776 -1.98987,0.16418 -2.551,-0.22885 z"
       id="path5254"
       inkscape:connector-curvature="0" />
    <path
       style="fill:#ff0000;stroke-width:1;stroke-miterlimit:4;stroke-dasharray:6, 6;stroke-dashoffset:0"
       d="m 384.64317,140.48659 c -1.83963,-1.54794 -0.79118,-5.12989 1.50154,-5.12989 0.4796,0 0.98977,0.25426 1.46628,0.73077 0.63536,0.63535 0.73077,0.91532 0.73077,2.14423 0,1.22891 -0.0954,1.50887 -0.73077,2.14423 -0.92079,0.92079 -1.95903,0.9595 -2.96782,0.11066 z"
       id="path5256"
       inkscape:connector-curvature="0" />
    <path
       style="fill:#ff0000;stroke-width:1;stroke-miterlimit:4;stroke-dasharray:6, 6;stroke-dashoffset:0"
       d="m 375.16052,141.8506 c -2.04829,-0.4527 -2.92353,-1.76322 -2.77156,-4.14992 0.0792,-1.24433 0.23018,-1.71666 0.71413,-2.23466 0.88235,-0.94441 1.81027,-1.35938 3.03875,-1.35893 1.57561,5.7e-4 2.72125,0.67342 3.40463,1.99961 0.95841,1.85991 0.39397,4.40685 -1.1761,5.30693 -0.83826,0.48056 -2.18381,0.66373 -3.20985,0.43697 z m 2.5165,-1.25731 c 1.68759,-1.32745 1.23977,-4.91626 -0.6796,-5.44622 -1.12376,-0.31029 -1.99817,-0.11524 -2.66487,0.59443 -0.6751,0.71861 -0.91056,2.46828 -0.49971,3.71318 0.51481,1.55989 2.54439,2.16103 3.84418,1.13861 z"
       id="path5258"
       inkscape:connector-curvature="0" />
    <path
       style="fill:#ff0000;stroke-width:1;stroke-miterlimit:4;stroke-dasharray:6, 6;stroke-dashoffset:0"
       d="m 374.48898,140.08752 c -1.19,-1.41424 -0.72579,-4.07695 0.82256,-4.7183 2.01718,-0.83555 3.8228,1.46095 3.03219,3.85652 -0.36461,1.10477 -1.10193,1.63096 -2.28537,1.63096 -0.72282,0 -1.06206,-0.16627 -1.56938,-0.76918 z"
       id="path5260"
       inkscape:connector-curvature="0" />
    <path
       style="fill:#ff0000;stroke-width:1;stroke-miterlimit:4;stroke-dasharray:6, 6;stroke-dashoffset:0"
       d="m 375.33824,140.53218 c -0.89317,-0.43751 -1.56454,-1.93347 -1.35912,-3.02843 0.38796,-2.06801 2.2529,-2.79526 3.63187,-1.41628 1.41665,1.41665 0.79807,4.20452 -1.02275,4.60939 -0.34568,0.0769 -0.90818,0.003 -1.25,-0.16468 z"
       id="path5262"
       inkscape:connector-curvature="0" />
    <path
       style="fill:#ff0000;stroke-width:1;stroke-miterlimit:4;stroke-dasharray:6, 6;stroke-dashoffset:0"
       d="m 371.90062,149.34756 c -1.10315,-0.44318 -1.36305,-2.10934 -0.48776,-3.12692 0.75514,-0.87791 2.31346,-0.93606 2.98135,-0.11125 0.65392,0.80756 0.57715,2.14043 -0.16609,2.88367 -0.63601,0.63602 -1.3544,0.74544 -2.3275,0.3545 z m 1.98395,-0.65461 c 0.87973,-0.79614 0.28744,-2.83625 -0.82342,-2.83625 -1.04387,0 -1.46939,0.45865 -1.46939,1.58379 0,0.58642 0.135,1.20121 0.3,1.36621 0.42896,0.42896 1.45803,0.37022 1.99281,-0.11375 z"
       id="path5264"
       inkscape:connector-curvature="0" />
    <path
       style="fill:#ff0000;stroke-width:1;stroke-miterlimit:4;stroke-dasharray:6, 6;stroke-dashoffset:0"
       d="m 316.13265,383.85112 c -89.55877,-22.66237 -162.86542,-41.24147 -162.90368,-41.28687 -0.0383,-0.0454 10.44645,-10.99505 23.29935,-24.33255 12.8529,-13.3375 24.80667,-25.76035 26.56392,-27.60633 l 3.19501,-3.35633 1.77983,1.72391 c 0.97892,0.94816 1.9783,1.83976 2.22086,1.98133 0.5225,0.30498 2.16404,2.0765 5.10336,5.50742 2.71102,3.16444 3.04524,3.47371 6.21244,5.74853 4.45821,3.20208 9.24938,5.26839 15.08475,6.50565 l 2.77827,0.58907 -1.75,0.0167 c -4.89546,0.0468 -10.48552,0.95419 -12.99941,2.11008 -1.8014,0.82829 -2.97004,1.86491 -2.60214,2.3082 0.40414,0.48695 0.5964,0.44416 1.74605,-0.38864 2.4915,-1.80484 6.03398,-2.43332 15.6055,-2.76865 4.125,-0.14451 8.11875,-0.3053 8.875,-0.35731 0.75625,-0.052 1.57187,-0.10448 1.8125,-0.11661 0.28755,-0.0145 0.4375,-0.22536 0.4375,-0.61524 0,-0.52164 -0.14324,-0.60983 -1.1875,-0.73114 -2.04749,-0.23784 -12.32754,-2.64469 -14.79377,-3.46363 -2.59459,-0.86157 -4.04708,-1.94319 -5.16023,-3.84263 -0.80342,-1.37093 -1.6085,-3.75058 -1.6085,-4.75438 0,-0.58844 -0.13137,-0.84106 -0.48553,-0.93367 -0.65094,-0.17023 -0.76447,-0.0111 -0.76447,1.07118 0,1.96345 1.47078,5.20311 3.20283,7.05481 1.3477,1.4408 1.81512,1.70785 4.74282,2.70968 1.37752,0.47138 1.81143,0.69115 1.17935,0.59732 -1.69281,-0.25127 -6.02307,-1.7964 -8.48862,-3.0289 -2.18538,-1.09246 -6.68501,-4.09626 -8.0778,-5.39247 -0.33566,-0.31239 -2.16688,-2.36797 -4.06937,-4.56797 -1.90249,-2.2 -4.05912,-4.4746 -4.79251,-5.05467 -0.73339,-0.58006 -1.71987,-1.45337 -2.19219,-1.94068 l -0.85876,-0.88601 1.51766,-1.55932 c 0.83472,-0.85763 42.0476,-43.69057 91.5842,-95.18432 49.53659,-51.49375 90.92398,-94.495888 91.97196,-95.560305 l 1.90543,-1.935303 7.98126,31.133118 c 4.38969,17.12321 7.98969,31.36027 7.99999,31.6379 0.0213,0.5734 -1.54535,1.32794 -5.60625,2.70016 -4.81954,1.62856 -15.08377,3.94095 -16.55427,3.72946 -0.34881,-0.0502 1.5864,-0.99136 5.18641,-2.52241 6.37953,-2.71315 10.09901,-4.7579 12.02181,-6.6089 1.94795,-1.8752 2.0238,-2.13175 0.8289,-2.80333 l -0.99283,-0.55798 -1.72695,1.5989 c -2.00771,1.85883 -5.40878,3.70499 -11.63144,6.31374 -6.98828,2.92973 -8.56595,3.90664 -9.26497,5.73698 -0.24136,0.63202 -0.38536,1.2026 -0.32,1.26797 0.55198,0.55198 7.13811,1.61891 10.00599,1.62093 l 1.32235,0.001 -0.79892,0.48713 c -1.11731,0.68127 -1.58582,1.50531 -1.74772,3.07397 -0.20417,1.97821 0.52832,3.5331 1.97335,4.18894 1.31173,0.59533 2.61426,0.6277 3.93843,0.0979 2.24333,-0.8976 2.93926,-4.16045 1.37807,-6.46099 l -0.61856,-0.91151 0.93767,0.16079 c 3.85204,0.66053 6.09285,1.49519 7.62448,2.83998 0.98912,0.86846 1.35085,0.83533 2.29722,-0.21038 0.47465,-0.52451 0.47195,-0.53533 -0.34692,-1.38018 -2.3881,-2.46389 -7.18086,-3.78071 -15.5811,-4.28094 -1.6192,-0.0964 -3.00396,-0.27234 -3.07725,-0.39093 -0.0733,-0.11859 0.11836,-0.21562 0.42589,-0.21562 1.09754,0 8.14755,-1.55976 11.83936,-2.61936 2.0658,-0.59292 4.92595,-1.5418 6.35587,-2.10863 1.42993,-0.56682 2.6271,-1.00053 2.66035,-0.9638 0.0333,0.0367 15.5008,60.31054 34.37228,133.94179 18.8715,73.63126 34.3645,134.01564 34.4289,134.18751 0.0644,0.17188 -0.0356,0.30098 -0.22215,0.28688 -0.1866,-0.014 -73.6146,-18.56755 -163.17336,-41.22995 l 0,-8e-5 z m -62.79089,-26.81182 0.125,-3.94243 2.625,3.67253 c 1.44375,2.0199 2.77366,3.8221 2.95536,4.00492 0.43186,0.4345 1.90438,0.4276 2.26808,-0.0107 0.22494,-0.27102 -0.34442,-1.1994 -2.71341,-4.42442 -2.58265,-3.51585 -2.95203,-4.13518 -2.66572,-4.4695 2.64394,-3.0872 5.16407,-6.4114 5.10345,-6.7317 -0.10684,-0.56448 -1.75729,-0.68613 -2.27566,-0.16775 -0.21456,0.21455 -1.49417,1.81365 -2.8436,3.55357 l -2.4535,3.1635 -0.125,-3.47785 -0.125,-3.47785 -0.97455,-0.0798 c -0.61066,-0.05 -1.05264,0.0433 -1.18368,0.25 -0.358,0.5646 -0.26886,15.5527 0.0947,15.91623 0.17128,0.1713 0.70566,0.27817 1.1875,0.2375 l 0.87607,-0.0738 0.125,-3.9424 z m 18.70604,3.84985 c 0.1991,-0.12623 0.29875,-0.5482 0.25,-1.05868 l -0.081,-0.84877 -2.93362,-0.0704 -2.93362,-0.0704 -0.0664,-7.0546 -0.0664,-7.0546 -1.125,0 -1.125,0 0,7.94677 c 0,6.79185 0.0545,7.9812 0.375,8.18368 0.46328,0.29267 7.24952,0.31645 7.70604,0.027 z m 33.41896,-0.78245 0,-0.875 -1.5625,-0.0744 -1.5625,-0.0744 0,-7.23808 0,-7.23807 -0.92206,0 c -0.68069,0 -1.46598,0.34257 -3,1.30875 -2.00425,1.26232 -2.07794,1.3421 -2.07794,2.25 0,0.51767 0.091,0.94125 0.20221,0.94125 0.16594,0 1.51865,-0.76728 3.23529,-1.83513 0.24672,-0.15347 0.3125,1.06938 0.3125,5.80943 l 0,6.0038 -1.8125,0.0735 c -1.68086,0.0681 -1.81848,0.11562 -1.89477,0.65412 -0.18419,1.30005 -0.14272,1.31113 4.63914,1.23763 l 4.44313,-0.0683 0,-0.875 z m 56.075,0.7 c 0.165,-0.165 0.3,-0.66595 0.3,-1.11323 l 0,-0.81322 -1.19582,0.14162 c -1.80832,0.21418 -1.91248,-0.0155 -2.01436,-4.44055 l -0.0852,-3.6996 1.58518,-0.075 1.58518,-0.075 0,-0.875 0,-0.875 -1.55037,-0.0741 -1.55037,-0.0741 -0.0746,-1.4259 c -0.071,-1.3562 -0.10897,-1.4298 -0.77725,-1.50645 -1.04271,-0.11955 -1.42238,0.33965 -1.42238,1.72035 0,1.1751 -0.0192,1.2054 -0.8125,1.28188 -0.74698,0.072 -0.8125,0.1489 -0.8125,0.95335 0,0.7969 0.0696,0.88177 0.7804,0.95095 l 0.7804,0.0759 0.12131,4.04905 c 0.13058,4.3587 0.3412,5.2149 1.42832,5.80617 0.78989,0.42963 3.30684,0.4756 3.71457,0.0679 z m -42.2,-11.7 0,-11.25 -1,0 -1,0 0,11.25 0,11.25 1,0 1,0 0,-11.25 z m 11.5,0 0,-11.25 -1,0 -1,0 0,11.25 0,11.25 1,0 1,0 0,-11.25 z m -52.25,10.63425 c 0,-0.20115 -0.23185,-0.95393 -0.51521,-1.67283 -2.08874,-5.2992 -2.21168,-11.31895 -0.34552,-16.91966 0.4734,-1.42078 0.86073,-2.6864 0.86073,-2.8125 0,-0.12609 -0.39146,-0.22926 -0.86992,-0.22926 -0.75435,0 -0.93286,0.12455 -1.34369,0.9375 -0.26057,0.51562 -0.75458,1.78125 -1.09781,2.8125 -1.82819,5.493 -1.53976,11.47965 0.80191,16.6441 0.69726,1.53777 0.76593,1.6059 1.61883,1.6059 0.61503,0 0.89068,-0.1132 0.89068,-0.36575 z m 87.71361,-0.57175 c 0.77521,-1.534 1.71271,-4.58103 2.04693,-6.65285 0.63731,-3.9507 -0.0834,-8.98375 -1.86262,-13.00679 -0.58571,-1.32439 -0.67012,-1.40286 -1.50916,-1.40286 -1.05749,0 -1.09523,0.20768 -0.37144,2.04395 1.11829,2.8371 1.56838,5.4073 1.56838,8.95605 0,3.64552 -0.47566,6.25862 -1.67777,9.21702 -0.33492,0.82425 -0.54497,1.5626 -0.46677,1.6408 0.0782,0.0782 0.51489,0.14218 0.97042,0.14218 0.7062,0 0.89807,-0.13815 1.30203,-0.9375 z m -78.46201,-3.56333 c 0.53992,-0.27545 1.10852,-0.7378 1.26355,-1.02747 0.27544,-0.51468 0.29242,-0.50933 0.74498,0.23485 0.57037,0.93792 1.20276,1.29345 2.30065,1.29345 1.18001,0 1.75132,-0.4809 1.64817,-1.38733 -0.078,-0.68542 -0.14908,-0.732 -1.00324,-0.6576 -1.03333,0.09 -1.27319,-0.184 -1.5624,-1.78497 -0.12167,-0.67358 -0.0224,-1.41013 0.33689,-2.5 0.51203,-1.55313 1.2698,-4.88055 1.2698,-5.57583 0,-0.28425 -0.25287,-0.35472 -1.0625,-0.29615 l -1.0625,0.0769 -0.2202,1.46657 -0.22019,1.46658 -0.5483,-1.09158 c -0.77948,-1.55185 -2.07939,-2.26385 -3.92544,-2.15015 -1.89,0.1164 -3.01781,0.89143 -3.9051,2.68358 -0.58875,1.18912 -0.68077,1.67915 -0.68077,3.625 0,1.9543 0.0913,2.43597 0.69489,3.66502 0.54864,1.1172 0.91697,1.52498 1.75,1.9373 1.33064,0.65868 2.91721,0.66695 4.18171,0.0217 l 0,10e-5 z m -44.0016,-0.41042 c 0.61875,-0.28123 1.59747,-1.02635 2.17493,-1.65583 1.43326,-1.56232 1.89715,-3.22205 1.78544,-6.3881 -0.0724,-2.05182 -0.19408,-2.6412 -0.80016,-3.87552 -1.36715,-2.78425 -3.53953,-3.72871 -8.31496,-3.61502 l -2.97025,0.0707 -0.0662,7.74755 c -0.0364,4.26117 -0.007,7.90202 0.0655,8.0908 0.22303,0.58122 6.67735,0.28365 8.12569,-0.3746 z m 101.75,-2.30208 0,-2.9633 1.92283,-0.16255 c 3.64045,-0.30772 5.34053,-1.7798 5.53223,-4.79025 0.12619,-1.9818 -0.25383,-3.14209 -1.34204,-4.09756 -1.17652,-1.03299 -2.40043,-1.30199 -5.5463,-1.21901 l -2.69172,0.071 -0.066,8.0625 -0.066,8.0625 1.12847,0 1.12846,0 0,-2.96333 z M 259.5668,331.615 l 0.96413,-1.49171 0.92073,1.49171 c 0.83902,1.3593 0.99782,1.4917 1.78921,1.4917 0.99348,0 1.04407,0.17882 -0.73742,-2.60676 l -1.10753,-1.73177 1.34792,-2.08944 c 0.74135,-1.1492 1.34792,-2.19803 1.34792,-2.33074 0,-0.13271 -0.32429,-0.24129 -0.72064,-0.24129 -0.61168,0 -0.8807,0.24568 -1.77936,1.625 -0.5823,0.89375 -1.08855,1.625 -1.125,1.625 -0.0365,0 -0.5427,-0.73125 -1.125,-1.625 -0.96435,-1.48013 -1.13543,-1.625 -1.91912,-1.625 -0.62269,0 -0.80805,0.0863 -0.67093,0.3125 0.1042,0.17187 0.7897,1.24558 1.52333,2.38601 l 1.33387,2.07351 -1.37797,2.11399 -1.37797,2.11399 0.87485,0 c 0.79432,0 0.96358,-0.1373 1.83898,-1.4917 z m 128.27496,-2.1333 0,-0.875 -1.60714,0 c -2.38339,0 -2.39286,-0.0184 -2.39286,-4.64286 l 0,-3.85714 2,0 2,0 0,-0.875 0,-0.875 -2,0 -2,0 0,-1.75 0,-1.75 -1.125,0 -1.125,0 0,1.73339 c 0,1.70514 -0.0112,1.73469 -0.6875,1.8125 -0.57964,0.0667 -0.6875,0.19677 -0.6875,0.82911 0,0.62644 0.10976,0.76269 0.66624,0.82705 l 0.66623,0.0771 0.0933,4.04794 c 0.13135,5.69628 0.43251,6.14496 4.13669,6.16294 l 2.0625,0.01 0,-0.875 0,10e-6 z m -142.75,-1.25 c 0.48125,-0.75483 0.95307,-1.373 1.04848,-1.37371 0.0954,-7.5e-4 0.54358,0.61746 0.99591,1.37371 0.72862,1.21817 0.91556,1.375 1.63902,1.375 0.44912,0 0.81659,-0.0625 0.81659,-0.13883 0,-0.0764 -0.5625,-1.01573 -1.25,-2.08748 -0.6875,-1.07175 -1.25,-2.0228 -1.25,-2.11345 0,-0.0906 0.61875,-1.12395 1.375,-2.29623 0.75625,-1.17229 1.375,-2.18376 1.375,-2.24772 0,-0.064 -0.36732,-0.11629 -0.81627,-0.11629 -0.73477,0 -0.91573,0.16135 -1.8125,1.61611 -0.54793,0.88886 -1.05418,1.62011 -1.125,1.625 -0.0708,0.005 -0.57707,-0.71836 -1.125,-1.60722 -0.89117,-1.44568 -1.08192,-1.61705 -1.80873,-1.625 -0.44688,-0.005 -0.8125,0.0608 -0.8125,0.14588 0,0.0851 0.62759,1.14476 1.39464,2.35473 1.57196,2.47967 1.58356,2.17536 -0.18262,4.78928 -0.52911,0.78308 -0.96202,1.48621 -0.96202,1.5625 0,0.0763 0.36562,0.13814 0.8125,0.13743 0.7112,-0.001 0.92159,-0.1724 1.6875,-1.37371 z m 95.5,-2.74195 0,-3.61695 3.09782,1.86695 c 1.70379,1.02682 3.21143,1.86695 3.3503,1.86695 0.20745,0 1.30188,-1.56827 1.30188,-1.86553 0,-0.0478 -1.51838,-0.90802 -3.37418,-1.91154 -1.85579,-1.00352 -3.29017,-1.90113 -3.1875,-1.99468 0.10268,-0.0935 1.59293,-0.92899 3.31168,-1.85653 1.71875,-0.92754 3.16596,-1.72221 3.21602,-1.76593 0.0703,-0.0614 -0.74088,-1.56178 -1.11866,-2.06918 -0.0362,-0.0486 -1.48517,0.76701 -3.21994,1.8125 -1.73477,1.04549 -3.20437,1.90089 -3.26578,1.90089 -0.0614,0 -0.11164,-1.63742 -0.11164,-3.6387 l 0,-3.6387 -1.1875,0.0762 -1.1875,0.0762 -0.125,3.54355 -0.125,3.54355 -3.07448,-1.85605 c -1.69096,-1.02083 -3.11422,-1.85605 -3.1628,-1.85605 -0.13349,0 -1.13772,1.74881 -1.13772,1.98127 0,0.11149 1.52732,1.02039 3.39404,2.01978 l 3.39403,1.81708 -3.39403,1.85491 c -1.86672,1.0202 -3.39346,1.93299 -3.39276,2.02843 7.5e-4,0.0954 0.25383,0.58767 0.5625,1.09385 l 0.56122,0.92031 3.07448,-1.85781 c 1.69096,-1.0218 3.12533,-1.85782 3.1875,-1.85782 0.0622,0 0.11302,1.575 0.11302,3.5 l 0,3.5 1.25,0 1.25,0 0,-3.61695 z m -64.56931,-2.39766 0.99535,-1.51461 0.97448,1.51242 c 0.86218,1.33814 1.06811,1.51268 1.78698,1.51461 0.44687,0.001 0.8125,-0.0501 0.8125,-0.1141 0,-0.064 -0.60733,-1.05773 -1.34962,-2.20838 l -1.34962,-2.09208 1.34458,-2.10413 c 0.73952,-1.15727 1.34685,-2.1885 1.34962,-2.29162 0.003,-0.10313 -0.33491,-0.1875 -0.75041,-0.1875 -0.65149,0 -0.89305,0.21289 -1.75532,1.54698 -0.54992,0.85084 -1.03877,1.58589 -1.08632,1.63345 -0.0476,0.0476 -0.54735,-0.64859 -1.11064,-1.54698 -0.9449,-1.50703 -1.09215,-1.63345 -1.9026,-1.63345 l -0.87844,0 1.32318,2.0625 c 0.72775,1.13437 1.39905,2.19048 1.49178,2.34691 0.0927,0.15643 -0.37037,1.11268 -1.02912,2.125 -0.65875,1.01232 -1.28297,1.98121 -1.38715,2.15309 -0.13704,0.22608 0.0477,0.3125 0.66799,0.3125 0.77269,0 0.95579,-0.14969 1.85278,-1.51461 z m 90.31931,-4.21195 0,-4.97656 3.5625,-0.0936 c 4.10489,-0.10783 5.54654,-0.55824 7.02507,-2.19479 1.34788,-1.49195 1.74129,-2.84753 1.61395,-5.56127 -0.12637,-2.69303 -0.64124,-3.94901 -2.11776,-5.16608 -1.70941,-1.40904 -2.67713,-1.60745 -8.39626,-1.72145 l -5.1875,-0.1034 0,12.39684 0,12.39685 1.75,0 1.75,0 0,-4.97656 z m -110.00134,1.19831 0.98775,-1.52824 0.94429,1.52549 c 0.84106,1.35872 1.03312,1.52579 1.7568,1.52825 0.44687,0.002 0.8125,-0.0597 0.8125,-0.13608 0,-0.0764 -0.5625,-1.01573 -1.25,-2.08748 -0.6875,-1.07175 -1.25,-2.06359 -1.25,-2.20409 0,-0.1405 0.54015,-1.08551 1.20032,-2.10002 0.66018,-1.01452 1.28557,-1.98521 1.38976,-2.15708 0.13709,-0.22616 -0.0483,-0.3125 -0.67096,-0.3125 -0.78493,0 -0.95457,0.14456 -1.93421,1.64816 l -1.07382,1.64816 -1.01804,-1.64547 c -0.915,-1.4789 -1.1003,-1.64573 -1.83055,-1.64816 -0.44688,-0.002 -0.8125,0.062 -0.8125,0.14103 0,0.079 0.4942,0.90768 1.09822,1.84141 1.84482,2.85179 1.80733,2.51708 0.50883,4.54287 -1.55365,2.42386 -1.56589,2.472 -0.62835,2.472 0.68324,0 0.90717,-0.19335 1.76996,-1.52825 z m 33.79846,-5.08966 c 0.45533,-0.75235 0.90533,-1.3711 1,-1.375 0.0947,-0.004 0.54467,0.60847 1,1.36082 0.7275,1.20205 0.92639,1.36877 1.64038,1.375 0.44687,0.004 0.8125,-0.0708 0.8125,-0.16592 0,-0.0952 -0.57105,-1.04282 -1.269,-2.10593 -1.43194,-2.18111 -1.45001,-1.91956 0.31291,-4.52859 1.39441,-2.06363 1.41953,-2.19417 0.42034,-2.18358 -0.75978,0.008 -0.93359,0.16192 -1.83548,1.625 -0.54793,0.88886 -1.05773,1.61611 -1.1329,1.61611 -0.0752,0 -0.58311,-0.73098 -1.12877,-1.62441 -0.89294,-1.46205 -1.07331,-1.62446 -1.8046,-1.625 -0.44688,-2.5e-4 -0.8125,0.0587 -0.8125,0.13105 0,0.0724 0.61875,1.10689 1.375,2.29888 0.75625,1.19199 1.375,2.2566 1.375,2.36581 0,0.1092 -0.48483,0.95908 -1.0774,1.88861 -0.59257,0.92953 -1.16171,1.83068 -1.26475,2.00256 -0.13559,0.22614 0.0543,0.3125 0.68702,0.3125 0.79177,0 0.9526,-0.12924 1.70225,-1.36791 z m 40.19905,-3.07274 c 0.004,-0.30221 -0.89083,-0.75583 -4.07405,-2.06608 -1.24248,-0.51142 -1.48629,-0.54518 -1.68367,-0.23315 -0.34909,0.5519 -0.29107,0.72853 0.32405,0.98648 0.30937,0.12973 1.57258,0.68298 2.80713,1.22945 2.22363,0.98428 2.61546,0.9967 2.62654,0.0833 z m -68.18578,-1.99685 0.70859,-2.3125 2.08665,0 2.08665,0 -0.72114,2.30016 c -0.39663,1.26509 -0.72114,2.33384 -0.72114,2.375 0,0.0412 0.59445,0.0748 1.32099,0.0748 l 1.32099,0 0.71351,-2.375 0.71351,-2.375 2.7155,0 2.7155,0 0,-1 0,-1 -2.3439,0 -2.3439,0 0.5314,-1.74747 0.5314,-1.74747 2.6875,-0.003 2.6875,-0.003 0,-1 0,-1 -2.35915,0 -2.35915,0 0.73415,-2.1719 c 0.40378,-1.19454 0.73415,-2.31954 0.73415,-2.5 0,-0.22648 -0.38212,-0.3281 -1.23372,-0.3281 l -1.23372,0 -0.81944,2.5 -0.81945,2.5 -2.07183,0 c -1.13951,0 -2.07184,-0.0351 -2.07184,-0.0781 0,-0.043 0.3375,-1.07656 0.75,-2.2969 0.4125,-1.22034 0.75,-2.31607 0.75,-2.43496 0,-0.1189 -0.58169,-0.18217 -1.29263,-0.14061 l -1.29264,0.0756 -0.79042,2.375 -0.79042,2.375 -2.66695,0.071 -2.66694,0.0709 0,0.99155 0,0.99154 2.35857,0 2.35858,0 -0.56875,1.6875 -0.56874,1.6875 -2.66483,0.071 -2.66483,0.0709 0,0.99155 0,0.99154 2.25,0 c 1.27393,0 2.25,0.10432 2.25,0.24047 0,0.13227 -0.27982,1.11664 -0.62181,2.1875 -0.34199,1.07087 -0.62324,2.03728 -0.625,2.14759 -0.002,0.11031 0.58221,0.16656 1.29771,0.125 l 1.3009,-0.0756 0.70859,-2.3125 z m 75.59335,0.82776 c 0.0759,-0.19786 0.0161,-0.98536 -0.13285,-1.75 -0.14899,-0.76465 -0.39137,-2.00901 -0.53862,-2.76526 -0.23673,-1.21582 -0.33802,-1.375 -0.875,-1.375 -0.334,0 -0.60727,0.0505 -0.60727,0.11231 0,0.2323 1.02409,5.526 1.12691,5.82519 0.14694,0.42757 0.85716,0.39489 1.02683,-0.0472 z m -18.65374,-2.98286 c 0,-0.53812 -0.24713,-0.66469 -2.6875,-1.37644 -3.2008,-0.93354 -3.31276,-0.94092 -3.3116,-0.21846 7.5e-4,0.49912 0.3036,0.65175 2.6875,1.35466 3.2917,0.97058 3.3116,0.97202 3.3116,0.24024 z m -38.69804,-2.76912 c 1.05983,-0.21356 2.21295,-0.38828 2.5625,-0.38828 0.51124,0 0.63554,-0.12224 0.63554,-0.625 0,-0.51595 -0.11996,-0.62443 -0.6875,-0.62172 -0.69269,0.003 -5.29322,0.89411 -5.45545,1.05633 -0.048,0.048 -0.0215,0.33859 0.0589,0.64582 0.0959,0.36676 0.28567,0.51782 0.55258,0.43986 0.22358,-0.0653 1.27364,-0.29346 2.33347,-0.50701 z m 27.04629,-0.0337 c 0.2807,-0.73149 0.15941,-0.79063 -2.45738,-1.19819 -3.51937,-0.54813 -3.64087,-0.54083 -3.64087,0.21864 0,0.53531 0.1166,0.6272 0.8125,0.64036 0.44687,0.008 1.6,0.16459 2.5625,0.34697 2.36716,0.44855 2.54834,0.44803 2.72325,-0.008 l 0,-10e-6 z m -60.68827,-1.85236 c 0.53076,-0.8238 1.02127,-1.49756 1.09002,-1.49725 0.0687,2.5e-4 0.54201,0.67433 1.0517,1.49781 0.80378,1.29866 1.0276,1.49725 1.6875,1.49725 0.41844,0 0.76078,-0.0844 0.76077,-0.1875 -2e-5,-0.10313 -0.56252,-1.0654 -1.25,-2.13838 -0.68749,-1.07299 -1.24997,-2.05839 -1.24997,-2.18979 0,-0.13139 0.61875,-1.19804 1.375,-2.37032 0.75625,-1.17229 1.375,-2.18376 1.375,-2.24772 0,-0.064 -0.36732,-0.11629 -0.81627,-0.11629 -0.73477,0 -0.91573,0.16135 -1.8125,1.61611 -0.54793,0.88886 -1.06739,1.62011 -1.15437,1.625 -0.087,0.005 -0.63456,-0.72236 -1.21686,-1.61611 -0.89866,-1.37932 -1.16768,-1.625 -1.77937,-1.625 -0.39635,0 -0.72063,0.10863 -0.72063,0.2414 0,0.13276 0.63004,1.20797 1.4001,2.38934 l 1.4001,2.14794 -1.2751,2.0033 c -0.70131,1.10182 -1.2751,2.10787 -1.2751,2.23566 0,0.1278 0.32511,0.23236 0.72248,0.23236 0.60886,0 0.87423,-0.23554 1.6875,-1.49781 z m 48.84002,0.27456 c 0,-0.67642 -0.45473,-0.77675 -3.52045,-0.77675 l -2.72955,0 0,0.625 0,0.625 3.125,0 c 2.89946,0 3.125,-0.0342 3.125,-0.47325 z M 285.53721,299.368 c 0.51125,-0.81878 0.9858,-1.49254 1.05455,-1.49725 0.0687,-0.005 0.54201,0.66522 1.0517,1.4887 0.80378,1.29866 1.0276,1.49725 1.6875,1.49725 0.41844,0 0.76078,-0.0844 0.76077,-0.1875 -2e-5,-0.10313 -0.57282,-1.08147 -1.27289,-2.1741 -1.45543,-2.27156 -1.48238,-2.00802 0.51963,-5.08034 0.80608,-1.23703 0.94331,-1.59677 0.65178,-1.70864 -0.77756,-0.29838 -1.30978,0.087 -2.36602,1.71315 l -1.09253,1.68203 -1.11791,-1.7473 c -0.9637,-1.50627 -1.21821,-1.7473 -1.84497,-1.7473 -0.39988,0 -0.72706,0.10858 -0.72706,0.24129 0,0.13271 0.61875,1.20043 1.375,2.37272 0.75625,1.17228 1.375,2.18755 1.375,2.25615 0,0.0686 -0.51615,0.92997 -1.147,1.91415 -1.54977,2.41781 -1.56185,2.46569 -0.6218,2.46569 0.68767,0 0.89962,-0.18406 1.71425,-1.4887 z m 50.30597,-0.8238 c 7.5e-4,-0.30938 -0.13197,-1.71563 -0.29501,-3.125 -0.28092,-2.42846 -0.32677,-2.5625 -0.87642,-2.5625 -0.68211,0 -0.69439,0.13099 -0.31645,3.375 0.32484,2.78824 0.35437,2.875 0.97861,2.875 0.35957,0 0.50826,-0.16424 0.50927,-0.5625 z m -37.25142,-4.3125 c 0.48125,-0.75483 0.95307,-1.373 1.04848,-1.37371 0.0954,-7.5e-4 0.54358,0.61746 0.99591,1.37371 0.72862,1.21817 0.91556,1.375 1.63902,1.375 0.44912,0 0.81659,-0.0625 0.81659,-0.13883 0,-0.0764 -0.5625,-1.01573 -1.25,-2.08748 -0.6875,-1.07175 -1.25,-2.0228 -1.25,-2.11345 0,-0.0906 0.61875,-1.12395 1.375,-2.29623 0.75625,-1.17229 1.375,-2.18376 1.375,-2.24772 0,-0.064 -0.36732,-0.11629 -0.81627,-0.11629 -0.73477,0 -0.91573,0.16135 -1.8125,1.61611 -0.54793,0.88886 -1.05418,1.62011 -1.125,1.625 -0.0708,0.005 -0.57707,-0.71836 -1.125,-1.60722 -0.89117,-1.44568 -1.08192,-1.61705 -1.80873,-1.625 -0.44688,-0.005 -0.8125,0.0608 -0.8125,0.14588 0,0.0851 0.62759,1.14476 1.39464,2.35473 1.57196,2.47967 1.58356,2.17536 -0.18262,4.78928 -0.52911,0.78308 -0.96202,1.48621 -0.96202,1.5625 0,0.0763 0.36562,0.13814 0.8125,0.13743 0.7112,-0.001 0.92159,-0.1724 1.6875,-1.37371 z m -63.26833,-0.25657 c 0.46052,-0.75986 0.91975,-1.43251 1.02051,-1.49478 0.10075,-0.0623 0.59838,0.55943 1.10582,1.38157 0.78881,1.27797 1.0292,1.49478 1.65732,1.49478 0.40407,0 0.73468,-0.10878 0.73468,-0.24173 0,-0.13294 -0.5739,-1.14566 -1.27532,-2.25047 l -1.27532,-2.00875 1.39611,-2.15521 c 0.76786,-1.18537 1.33511,-2.25391 1.26056,-2.37453 -0.0745,-0.12062 -0.41422,-0.21931 -0.75484,-0.21931 -0.49105,0 -0.8303,0.33652 -1.63817,1.625 -0.56038,0.89375 -1.09815,1.625 -1.19504,1.625 -0.0969,0 -0.64236,-0.73125 -1.21216,-1.625 -0.81914,-1.28487 -1.16579,-1.625 -1.65615,-1.625 -0.34109,0 -0.67483,0.0885 -0.74166,0.19658 -0.0668,0.10812 0.526,1.20285 1.31738,2.43274 l 1.43887,2.23617 -1.33213,2.06497 c -0.73267,1.13573 -1.33213,2.12225 -1.33213,2.19225 0,0.07 0.36998,0.12729 0.82218,0.12729 0.72937,0 0.91669,-0.15594 1.65949,-1.38157 z m 26.37311,-4.11843 c 0.50922,-0.825 0.96832,-1.5 1.02022,-1.5 0.0519,0 0.511,0.675 1.02021,1.5 0.83433,1.35171 1.00885,1.5 1.76532,1.5 0.46171,0 0.83947,-0.0524 0.83947,-0.1164 0,-0.064 -0.62101,-1.0691 -1.38001,-2.23352 l -1.38002,-2.11713 1.38002,-2.13919 c 0.759,-1.17656 1.38001,-2.25272 1.38001,-2.39148 0,-0.13875 -0.3285,-0.25228 -0.73,-0.25228 -0.63294,0 -0.8765,0.23366 -1.83187,1.75743 l -1.10186,1.75742 -1.10564,-1.69492 c -1.06595,-1.63409 -1.59824,-2.02016 -2.37457,-1.72226 -0.27971,0.10734 -0.0197,0.67613 1.11511,2.43992 l 1.47984,2.29995 -0.63745,1.01873 c -0.35059,0.5603 -0.95832,1.489 -1.3505,2.06377 -0.39219,0.57478 -0.71306,1.10915 -0.71306,1.1875 0,0.0784 0.37776,0.14246 0.83946,0.14246 0.75648,0 0.931,-0.14829 1.76532,-1.5 z m 16.14522,-1.75 c 0.56025,-0.825 1.06379,-1.5 1.119,-1.5 0.0552,0 0.517,0.675 1.02621,1.5 0.78232,1.26744 1.03663,1.5 1.64032,1.5 0.39296,0 0.71447,-0.13411 0.71447,-0.29801 0,-0.16391 -0.57458,-1.1732 -1.27685,-2.24288 l -1.27684,-1.94487 1.40184,-2.2217 c 0.77102,-1.22193 1.40185,-2.29389 1.40185,-2.38212 0,-0.0882 -0.34197,-0.16042 -0.75992,-0.16042 -0.66237,0 -0.89292,0.20861 -1.79591,1.625 -0.56979,0.89375 -1.10325,1.625 -1.18547,1.625 -0.0822,0 -0.59594,-0.73098 -1.1416,-1.62441 -0.89294,-1.46205 -1.07331,-1.62446 -1.8046,-1.625 -0.44688,-2.5e-4 -0.8125,0.0587 -0.8125,0.13105 0,0.0724 0.61875,1.10689 1.375,2.29888 0.75625,1.19199 1.37471,2.28587 1.37436,2.43086 -2.5e-4,0.14499 -0.56256,1.10737 -1.24936,2.13862 -0.6868,1.03125 -1.24902,1.95937 -1.24937,2.0625 -2.5e-4,0.10312 0.33268,0.1875 0.74005,0.1875 0.62544,0 0.89919,-0.2334 1.75932,-1.5 z m -29.88028,-0.91651 0.94051,-1.41651 0.46031,0.60401 c 0.25317,0.3322 0.65895,0.96963 0.90173,1.41651 0.37783,0.69543 0.57754,0.8125 1.38605,0.8125 l 0.94463,0 -1.39008,-2.1548 -1.39008,-2.15479 1.38861,-2.19043 c 0.76373,-1.20474 1.3886,-2.26008 1.3886,-2.34521 0,-0.0851 -0.36563,-0.1545 -0.8125,-0.15418 -0.7313,5e-4 -0.91166,0.16295 -1.8046,1.625 -0.54566,0.89343 -1.05191,1.62041 -1.125,1.61552 -0.0731,-0.005 -0.58121,-0.73614 -1.12913,-1.625 -0.89677,-1.45476 -1.07773,-1.61611 -1.8125,-1.61611 -0.44895,0 -0.81627,0.0671 -0.81627,0.14917 0,0.082 0.61875,1.09841 1.375,2.2586 0.75625,1.16019 1.375,2.22592 1.375,2.36829 0,0.14237 -0.31705,0.72912 -0.70455,1.30389 -0.3875,0.57478 -0.95918,1.46692 -1.27039,1.98255 l -0.56584,0.9375 0.85999,0 c 0.76815,0 0.96045,-0.15129 1.80051,-1.41651 z m 86.23483,-0.23524 c 0.4449,-0.17072 0.48891,-0.9841 0.2319,-4.28575 -0.15381,-1.97582 -0.18619,-2.0625 -0.77044,-2.0625 l -0.60988,0 0.17775,3.0625 c 0.20895,3.60019 0.20308,3.5803 0.97067,3.28575 z m -75.75507,-7.36505 0.97448,-1.51242 0.99535,1.51461 c 0.89698,1.36492 1.08009,1.51461 1.85278,1.51461 0.95677,0 0.97958,0.10666 -0.42765,-2 -1.68153,-2.5173 -1.67369,-2.22672 -0.12492,-4.62751 0.75926,-1.17695 1.38048,-2.19224 1.38048,-2.2562 0,-0.064 -0.3659,-0.11629 -0.8131,-0.11629 -0.72994,0 -0.92061,0.16945 -1.86416,1.65673 l -1.05106,1.65672 -1.03877,-1.65672 c -0.9558,-1.52442 -1.10804,-1.65673 -1.90623,-1.65673 l -0.86746,0 0.56792,0.9375 c 0.31235,0.51562 0.94028,1.4985 1.39539,2.18416 0.45511,0.68567 0.82745,1.36067 0.82744,1.5 -2e-5,0.13934 -0.56252,1.13123 -1.25,2.20422 -0.68749,1.07298 -1.24997,2.00111 -1.24997,2.0625 0,0.0614 0.36562,0.11063 0.8125,0.10943 0.71887,-0.002 0.92479,-0.17647 1.78698,-1.51461 z m 30.35613,-2.3582 c 0.45233,-0.75625 0.90049,-1.37442 0.9959,-1.37371 0.0954,7.5e-4 0.56724,0.61888 1.04849,1.37371 0.76591,1.20131 0.9763,1.37258 1.6875,1.37371 0.44687,7.5e-4 0.8125,-0.0515 0.8125,-0.11598 0,-0.0645 -0.5625,-0.97893 -1.25,-2.03208 -0.6875,-1.05314 -1.25,-2.0425 -1.25,-2.19856 0,-0.15607 0.37236,-0.84476 0.82747,-1.53043 0.45511,-0.68566 1.08303,-1.66854 1.39539,-2.18416 l 0.56792,-0.9375 -0.87729,0 c -0.80396,0 -0.95316,0.1249 -1.78502,1.49429 -0.49925,0.82186 -1.00159,1.55229 -1.11631,1.62319 -0.11472,0.0709 -0.66656,-0.60153 -1.22632,-1.49429 -0.8889,-1.41771 -1.11382,-1.62319 -1.77679,-1.62319 -0.41748,0 -0.75905,0.0793 -0.75905,0.17625 0,0.0969 0.6284,1.16752 1.39646,2.37908 l 1.39645,2.20282 -1.27145,1.98209 c -0.69931,1.09015 -1.27146,2.04457 -1.27146,2.12093 0,0.0763 0.36747,0.13883 0.81659,0.13883 0.72346,0 0.9104,-0.15683 1.63902,-1.375 z m 45.29439,-5.5 0,-3.125 -0.625,0 -0.625,0 0,3.125 0,3.125 0.625,0 0.625,0 0,-3.125 z m 20.26643,-1.8838 c 0.4464,-0.2389 0.48357,-0.55889 0.48357,-4.16294 l 0,-3.90414 2.78029,3.97544 c 1.52916,2.18649 2.90729,4.05809 3.0625,4.15911 0.39174,0.25496 1.45928,0.22981 1.89299,-0.0446 0.51115,-0.3234 0.20791,-0.89315 -2.42221,-4.55094 -1.22128,-1.69847 -2.4104,-3.37806 -2.64248,-3.73243 l -0.42198,-0.64429 2.75342,-3.48071 c 1.51438,-1.91438 2.72281,-3.64945 2.68539,-3.8557 -0.0753,-0.41527 -0.94667,-0.61476 -1.77599,-0.40661 -0.31944,0.0802 -1.60128,1.56299 -3.16207,3.65783 l -2.62486,3.523 -0.0612,-3.07461 c -0.0843,-4.23463 -0.0878,-4.24515 -1.38458,-4.15108 l -1.05423,0.0765 -0.066,8.09516 c -0.047,5.76546 0.0157,8.19368 0.21811,8.4375 0.33772,0.40692 1.06943,0.44207 1.73933,0.0835 z m 19.30601,-0.4912 c 0.0719,-0.275 0.0719,-0.725 0,-1 -0.12149,-0.46457 -0.34101,-0.5 -3.09782,-0.5 l -2.96707,0 -0.0663,-7.3125 -0.0663,-7.3125 -1,0 -1,0 -0.0661,7.99784 c -0.0364,4.39881 -0.0118,8.13943 0.0547,8.3125 0.09,0.23464 1.13252,0.31466 4.09943,0.31466 3.76844,0 3.9856,-0.0264 4.10945,-0.5 z m 33.05256,-0.5 0,-0.875 -3.43465,-0.125 -3.43467,-0.125 1.90081,-2.125 c 3.30128,-3.69064 4.34351,-5.62192 4.34351,-8.04875 0,-1.52334 -0.73393,-3.21941 -1.65398,-3.82224 -1.1902,-0.77985 -3.05922,-1.00066 -4.61913,-0.54571 -1.93985,0.56576 -2.72689,1.23244 -2.72689,2.30984 0,1.04593 0.29923,1.08247 1.899,0.23186 2.08482,-1.10851 3.84972,-0.64666 4.38745,1.14811 0.62355,2.08115 -0.3953,4.10488 -4.27469,8.4909 -1.84225,2.08285 -2.26176,2.70511 -2.26176,3.3549 0,0.43877 0.0773,0.87511 0.1719,0.96966 0.0945,0.0945 2.31642,0.14142 4.9375,0.10416 l 4.7656,-0.0677 0,-0.875 z m 13.75,-11.125 0,-11.5 -0.70263,-0.0806 c -1.46097,-0.16752 -1.42237,-0.47875 -1.42237,11.46573 0,6.02192 0.0706,11.13283 0.1568,11.35759 0.11362,0.29604 0.40637,0.38778 1.0625,0.33294 l 0.9057,-0.0757 0,-11.5 z m 11.5,0.003 c 0,-10.93974 -0.0223,-11.50084 -0.45728,-11.58464 -0.2515,-0.0484 -0.72962,-0.0197 -1.0625,0.0638 l -0.60522,0.1519 0,11.32858 c 0,6.23071 0.0803,11.40892 0.17857,11.50713 0.0982,0.0982 0.57633,0.14509 1.0625,0.10417 l 0.88393,-0.0744 0,-11.49658 z m -52.03218,11.17364 c 0.0673,-0.10887 -0.20132,-1.11254 -0.59689,-2.23039 -2.00081,-5.65405 -2.02916,-12.24081 -0.0762,-17.69667 0.87248,-2.43738 0.86806,-2.48653 -0.23226,-2.57759 -0.51563,-0.0427 -0.93789,-0.0427 -0.93836,0 -5e-4,0.0427 -0.34557,0.92134 -0.76689,1.95259 -2.28789,5.59997 -2.52523,11.37516 -0.6948,16.90621 1.01905,3.07926 1.50518,3.84379 2.44412,3.84379 0.40641,0 0.79397,-0.0891 0.86125,-0.19794 z m 9.14752,-4.42207 c 0.39353,-0.2035 0.95044,-0.66867 1.23758,-1.03371 0.28715,-0.36504 0.52208,-0.54467 0.52208,-0.39918 0,0.1455 0.29125,0.61067 0.64722,1.03372 0.55358,0.65788 0.81583,0.76862 1.8125,0.76535 1.53305,-0.005 1.84559,-0.23276 1.74632,-1.27239 -0.0777,-0.81363 -0.11911,-0.84546 -1.00033,-0.7687 -0.73343,0.0639 -0.97764,-0.0289 -1.20788,-0.45913 -0.39666,-0.74118 -0.19615,-3.20869 0.45275,-5.57159 0.29462,-1.07285 0.61048,-2.51445 0.70189,-3.20355 l 0.1662,-1.25292 -1.09683,0.0786 -1.09684,0.0785 -0.21571,1.61055 -0.21571,1.61055 -0.32302,-0.9396 c -0.40723,-1.18456 -1.02455,-1.88196 -2.05003,-2.31601 -2.58017,-1.09206 -5.50974,0.47561 -6.31652,3.3801 -0.64567,2.32443 -0.14327,6.39421 0.94007,7.61529 1.22488,1.38062 3.7014,1.86885 5.29626,1.04411 z m -44.17703,-0.37838 c 2.78664,-1.04262 4.22061,-3.42168 4.38789,-7.27985 0.17956,-4.14127 -0.98433,-6.64433 -3.74633,-8.05686 -1.2544,-0.64153 -1.72315,-0.72931 -4.54516,-0.85119 -2.34003,-0.10106 -3.24432,-0.0547 -3.52811,0.18081 -0.32745,0.27176 -0.3816,1.44163 -0.3816,8.24442 0,4.36025 0.075,8.00273 0.16667,8.09439 0.0917,0.0917 1.54994,0.16667 3.24062,0.16667 2.45852,0 3.34064,-0.0998 4.40602,-0.49839 z m -10.5357,-4.37661 c 0.15111,-2.97034 0.0722,-3.36082 -0.68113,-3.37117 -0.35867,-0.005 -0.59648,1.75866 -0.59648,4.42345 0,2.04255 0.0173,2.10503 0.5625,2.02761 0.53763,-0.0764 0.56925,-0.21252 0.71511,-3.07989 z m 0.96925,-11.6875 c 0.43969,-3.7171 0.44746,-3.55092 -0.17012,-3.63971 -0.44865,-0.0645 -0.57357,0.0716 -0.68758,0.74919 -0.14622,0.86895 -0.63916,4.9249 -0.63916,5.25896 0,0.10673 0.26859,0.19406 0.59687,0.19406 0.57064,0 0.61021,-0.11267 0.89999,-2.5625 z m 1.96782,-12.35025 c 0.57696,-2.96044 0.53817,-3.32067 -0.35893,-3.33342 -0.22466,-0.003 -1.35575,4.95048 -1.35575,5.93758 0,0.16973 0.25808,0.30859 0.57351,0.30859 0.53271,0 0.61388,-0.20719 1.14117,-2.91275 z m 2.12554,-9.27475 c 1.40709,-4.96803 1.48706,-5.36029 1.13784,-5.58112 -0.19418,-0.12279 -0.46556,-0.18851 -0.60306,-0.14604 -0.30242,0.0934 -1.91495,5.64777 -1.72763,5.95085 0.23579,0.38153 1.0655,0.22594 1.19285,-0.22369 z m 4.52726,-14.0145 c 1.03803,-2.72032 1.05703,-2.82081 0.58139,-3.07536 -0.27043,-0.14473 -0.55033,-0.20451 -0.622,-0.13284 -0.0717,0.0717 -0.61633,1.40266 -1.21034,2.95775 -0.95878,2.51002 -1.03297,2.84642 -0.66078,2.9964 0.23059,0.0929 0.51361,0.14584 0.62894,0.1176 0.11533,-0.0282 0.69258,-1.31684 1.28279,-2.86355 z m 4.82552,-10.92601 c 0.71885,-1.4454 1.307,-2.67894 1.307,-2.7412 0,-0.0623 -0.2227,-0.23238 -0.49488,-0.37805 -0.45171,-0.24175 -0.61699,-0.0214 -1.89487,2.52667 -1.09007,2.17354 -1.32642,2.83816 -1.06763,3.00222 0.65434,0.41482 0.86068,0.1836 2.15038,-2.40964 z m 6.09658,-10.48575 c 1.21819,-1.88963 1.59028,-2.65638 1.3875,-2.85916 -0.54952,-0.54952 -0.89792,-0.237 -2.53934,2.27787 -1.53284,2.34851 -1.63221,2.5808 -1.22988,2.875 0.24074,0.17602 0.50058,0.31292 0.57742,0.30421 0.0768,-0.009 0.88878,-1.17777 1.8043,-2.59792 z m 31.70145,0.30126 c 1.38214,-0.70873 2.00897,-1.84244 2.00897,-3.63352 0,-1.47379 -0.37094,-2.3692 -1.36707,-3.29992 -0.55657,-0.52003 -0.95656,-0.63388 -2.46125,-0.70052 -2.07897,-0.0921 -3.11352,0.37538 -3.80954,1.72133 -0.51889,1.00342 -0.53961,3.40677 -0.0377,4.37729 1.03471,2.0009 3.47126,2.66107 5.66663,1.53534 z m -13.12488,-5.90811 c 1.12818,-0.64249 1.71718,-1.85309 1.71718,-3.52939 0,-2.62357 -1.48411,-4.11941 -4.08131,-4.11357 -2.51986,0.006 -4.00202,1.53006 -4.00202,4.11602 0,2.74356 1.91075,4.42835 4.625,4.07807 0.55,-0.071 1.33352,-0.31899 1.74115,-0.55113 z m -17.34062,-1.34687 c 1.67703,-1.12034 2.19471,-3.49722 1.22637,-5.63081 -0.38673,-0.8521 -0.72818,-1.17992 -1.65685,-1.59072 -1.41118,-0.62423 -3.29417,-0.53326 -4.28573,0.20705 -1.3012,0.97148 -1.6851,1.75422 -1.67384,3.41279 0.0193,2.84103 1.2961,4.16657 4.01505,4.16823 1.17091,7.5e-4 1.72299,-0.13097 2.375,-0.56654 z m 39.7664,0.06 c 1.99068,-0.55291 3.14201,-3.04183 2.46553,-5.32991 -0.55398,-1.87373 -1.74991,-2.69834 -3.91341,-2.69834 -2.33756,0 -3.8211,1.28306 -4.03297,3.48795 -0.32628,3.39565 2.1667,5.46081 5.48085,4.5403 z m -33.91227,-2.78 c 1.50695,-1.77183 1.89074,-2.3743 1.70256,-2.67262 -0.13362,-0.21184 -0.34741,-0.41377 -0.47508,-0.44876 -0.12768,-0.035 -1.11696,0.99995 -2.1984,2.29986 -1.63839,1.96936 -1.91467,2.42561 -1.65689,2.73622 0.17015,0.20502 0.39328,0.37277 0.49583,0.37277 0.10256,0 1.06194,-1.02936 2.13198,-2.28747 z m 24.95663,-3.42835 c 1.56016,-0.89751 2.18881,-3.93494 1.19793,-5.78808 -1.33971,-2.50556 -5.66018,-2.53371 -7.11288,-0.0463 -0.59994,1.02724 -0.6349,3.41211 -0.0661,4.51196 0.9635,1.8632 3.90901,2.51447 5.98109,1.32247 z m -11.39211,-6.09668 0.0692,-3.6875 3.86831,0 3.86832,0 0,-1.125 0,-1.125 -3.875,0 -3.875,0 0,-3.625 0,-3.625 -1.375,0 -1.375,0 0,3.625 0,3.625 -3.875,0 -3.875,0 0,1.125 0,1.125 3.875,0 3.875,0 0,3.58333 c 0,1.97084 0.0802,3.66352 0.17819,3.76153 0.098,0.098 0.68863,0.14488 1.3125,0.10416 l 1.13431,-0.074 0.0692,-3.6875 z m -4.95177,0.45634 c 1.74181,-1.76396 1.83943,-1.91914 1.45136,-2.30721 -0.38806,-0.38806 -0.56884,-0.27656 -2.68772,1.65784 -2.15387,1.96635 -2.25019,2.09764 -1.8574,2.53167 0.5425,0.59944 0.79468,0.44601 3.09376,-1.8823 z m -10.73851,0.90016 c 1.73794,-0.90977 2.53042,-3.85396 1.55821,-5.78902 -0.66716,-1.3279 -1.86278,-2.00498 -3.54048,-2.00498 -2.71814,0 -4.14696,1.42348 -4.14048,4.125 0.002,1.03654 0.15406,1.75128 0.49058,2.31327 0.97937,1.63556 3.8004,2.31462 5.63217,1.35573 z m -12.1289,-2.76427 c 1.06293,-0.59771 1.62433,-1.86135 1.62368,-3.65473 -10e-4,-2.62678 -1.3465,-3.96637 -4.0007,-3.98303 -2.54159,-0.016 -3.99798,1.46535 -3.99798,4.06635 0,1.5386 0.55887,2.90492 1.41863,3.46826 1.33988,0.87792 3.49865,0.92285 4.95637,0.10315 z m 11.35958,-7.73655 c 1.1915,-0.63901 1.76562,-1.83128 1.76448,-3.66428 -0.002,-2.73219 -1.27456,-4.0039 -4.00753,-4.0039 -1.41915,0 -1.7836,0.0977 -2.55319,0.68474 -1.11181,0.84802 -1.52764,2.03649 -1.388,3.96701 0.0872,1.20531 0.24031,1.61506 0.84063,2.24948 0.40372,0.42664 0.95903,0.8694 1.23403,0.9839 0.92505,0.38515 3.21202,0.26442 4.10958,-0.21695 z m 12.4263,-3.32356 c 1.03257,-0.62739 1.58912,-1.85713 1.58912,-3.5113 0,-2.5966 -1.45118,-4.07499 -4,-4.07499 -2.6065,0 -4.05,1.45567 -4.05,4.08414 0,1.64729 0.48875,2.81707 1.43646,3.43803 1.40903,0.92323 3.56521,0.95075 5.02442,0.0641 z m 11.92541,-4.93544 c 1.56016,-0.89751 2.18881,-3.93494 1.19793,-5.78808 -1.33971,-2.50556 -5.66018,-2.53371 -7.11288,-0.0463 -0.59994,1.02724 -0.6349,3.41211 -0.0661,4.51196 0.9635,1.8632 3.90901,2.51447 5.98109,1.32247 z m -18.13178,-2.79178 c 1.7136,-1.04476 2.27701,-4.05189 1.12464,-6.0027 -0.55078,-0.93239 -2.16995,-1.74147 -3.47058,-1.73421 -2.63319,0.0147 -4.31165,1.9546 -4.03238,4.66045 0.164,1.58909 0.62907,2.41165 1.74989,3.09506 1.11283,0.67854 3.50072,0.66894 4.62843,-0.0186 l 0,0 z m 30.92049,-0.21267 c 1.06293,-0.59771 1.62433,-1.86135 1.62368,-3.65473 -10e-4,-2.62678 -1.3465,-3.96637 -4.0007,-3.98303 -2.54159,-0.016 -3.99798,1.46535 -3.99798,4.06635 0,1.5386 0.55887,2.90492 1.41863,3.46826 1.33988,0.87792 3.49865,0.92285 4.95637,0.10315 z m -22.44677,-1.79218 c 1.32165,-0.46072 1.75129,-2.37407 0.80362,-3.57884 -0.39928,-0.5076 -0.73869,-0.65871 -1.47955,-0.65871 -1.32197,0 -1.70836,0.18985 -2.15867,1.06066 -0.64921,1.25544 -0.1019,2.79932 1.15637,3.26198 0.57925,0.21299 0.8647,0.19851 1.67823,-0.0851 z m 14.5973,-7.80503 c 1.11126,-0.74238 1.72369,-2.00636 1.72369,-3.55752 0,-2.3544 -1.2742,-3.85471 -3.45145,-4.06392 -2.42923,-0.23342 -4.11857,0.89885 -4.51613,3.02692 -0.57119,3.05742 1.05519,5.1591 3.99389,5.16106 1.04099,7.5e-4 1.6186,-0.14474 2.25,-0.56654 z m -9.85017,-0.1724 c 1.38447,-0.84416 2.00384,-2.71993 1.55679,-4.71475 -0.59852,-2.67072 -3.36459,-3.82049 -5.97318,-2.48287 -1.35994,0.69734 -2.00911,1.84747 -2.00858,3.5586 5e-4,1.55528 0.61201,2.8185 1.72408,3.56142 1.12888,0.75414 3.52642,0.79372 4.70089,0.0776 z"
       id="path5266"
       inkscape:connector-curvature="0" />
  </g>
</svg>
